<svg width="83" height="83" viewBox="0 0 83 83" fill="none" xmlns="http://www.w3.org/2000/svg">
<path d="M55.3565 54.8392C64.1887 40.98 63.0784 42.709 63.3329 42.3477C66.5485 37.8122 68.248 32.4741 68.248 26.9102C68.248 12.155 56.2745 0 41.5 0C26.7737 0 14.752 12.131 14.752 26.9102C14.752 32.4705 16.4872 37.9483 19.8081 42.545L27.6432 54.8393C19.2662 56.1266 5.02539 59.963 5.02539 68.4102C5.02539 71.4894 7.03522 75.8777 16.6101 79.2973C23.2958 81.685 32.1351 83 41.5 83C59.0119 83 77.9746 78.0602 77.9746 68.4102C77.9746 59.9615 63.7505 56.1292 55.3565 54.8392ZM23.8704 39.87C23.8437 39.8282 23.8158 39.7873 23.7866 39.7471C21.0232 35.9453 19.6152 31.4397 19.6152 26.9102C19.6152 14.749 29.4076 4.86328 41.5 4.86328C53.5673 4.86328 63.3848 14.7534 63.3848 26.9102C63.3848 31.4469 62.0034 35.7997 59.3894 39.5014C59.1552 39.8103 60.3773 37.9117 41.5 67.533L23.8704 39.87ZM41.5 78.1367C22.3721 78.1367 9.88867 72.5143 9.88867 68.4102C9.88867 65.6517 16.303 61.116 30.5168 59.3481L39.4493 73.3645C39.8958 74.0652 40.669 74.4893 41.4998 74.4893C42.3306 74.4893 43.1041 74.065 43.5504 73.3645L52.4827 59.3481C66.6968 61.116 73.1113 65.6517 73.1113 68.4102C73.1113 72.4794 60.7403 78.1367 41.5 78.1367Z" fill="white"/>
<path d="M41.5 14.752C34.796 14.752 29.3418 20.2061 29.3418 26.9102C29.3418 33.6142 34.796 39.0684 41.5 39.0684C48.204 39.0684 53.6582 33.6142 53.6582 26.9102C53.6582 20.2061 48.204 14.752 41.5 14.752ZM41.5 34.2051C37.4776 34.2051 34.2051 30.9326 34.2051 26.9102C34.2051 22.8877 37.4776 19.6152 41.5 19.6152C45.5224 19.6152 48.7949 22.8877 48.7949 26.9102C48.7949 30.9326 45.5224 34.2051 41.5 34.2051Z" fill="white"/>
</svg>
