<svg width="72" height="73" viewBox="0 0 72 73" fill="none" xmlns="http://www.w3.org/2000/svg">
<circle cx="36" cy="36.5" r="36" fill="white" fill-opacity="0.05"/>
<path d="M51.9196 31.8446C51.8463 31.7712 51.7729 31.7223 51.6996 31.649L38.7633 19.9354C38.1006 19.3335 37.2375 19 36.3423 19C35.4471 19 34.584 19.3335 33.9213 19.9354L20.985 31.649C20.9117 31.7223 20.8383 31.7712 20.7649 31.8446L18.3929 33.9966C18.1548 34.2176 18.0139 34.5238 18.001 34.8484C17.9881 35.173 18.1042 35.4895 18.324 35.7287C18.5438 35.9679 18.8494 36.1103 19.1739 36.1249C19.4984 36.1394 19.8155 36.0248 20.0558 35.8062L20.447 35.4638V49.5739C20.4476 51.1952 21.0919 52.7498 22.2383 53.8962C23.3847 55.0426 24.9394 55.6869 26.5606 55.6875H46.124C47.7452 55.6869 49.2999 55.0426 50.4463 53.8962C51.5927 52.7498 52.237 51.1952 52.2376 49.5739V35.4638L52.6288 35.8062C52.8563 36.0127 53.1531 36.1261 53.4603 36.1241C53.6295 36.1219 53.7965 36.0863 53.9519 36.0191C54.1072 35.9519 54.2476 35.8546 54.3651 35.7328C54.5848 35.4925 54.7004 35.1749 54.6867 34.8496C54.6729 34.5242 54.5309 34.2175 54.2917 33.9966L51.9196 31.8446ZM43.6786 53.2421H41.2331V45.9058C41.2331 44.6087 40.7179 43.3647 39.8006 42.4474C38.8834 41.5302 37.6394 41.015 36.3423 41.015C35.0452 41.015 33.8012 41.5302 32.8839 42.4474C31.9667 43.3647 31.4514 44.6087 31.4514 45.9058V53.2421H29.006V45.9058C29.006 43.9601 29.7789 42.0941 31.1548 40.7183C32.5306 39.3425 34.3966 38.5695 36.3423 38.5695C38.288 38.5695 40.154 39.3425 41.5298 40.7183C42.9056 42.0941 43.6786 43.9601 43.6786 45.9058V53.2421Z" fill="white"/>
</svg>
