<svg width="1080" height="1400" viewBox="0 0 1080 1400" fill="none" xmlns="http://www.w3.org/2000/svg">
<g style="mix-blend-mode:overlay" opacity="0.3">
<path d="M-1453.88 170.98C-563.747 -456.415 -449.358 2657.9 1403.86 40.6862" stroke="black" stroke-width="0.9758" stroke-miterlimit="10" stroke-linecap="round" stroke-linejoin="round"/>
<path d="M-1451.9 214.53C-533.66 -498.902 -396.847 2628.16 1410.96 97.3361" stroke="black" stroke-width="0.9516" stroke-miterlimit="10" stroke-linecap="round" stroke-linejoin="round"/>
<path d="M-1449.62 258.079C-503.288 -541.036 -343.767 2598.78 1418.62 153.631" stroke="black" stroke-width="0.9274" stroke-miterlimit="10" stroke-linecap="round" stroke-linejoin="round"/>
<path d="M-1447.35 301.983C-473.2 -582.815 -290.688 2569.74 1426 210.635" stroke="black" stroke-width="0.9032" stroke-miterlimit="10" stroke-linecap="round" stroke-linejoin="round"/>
<path d="M-1445.37 345.533C-443.112 -625.302 -238.177 2540.36 1433.1 267.285" stroke="black" stroke-width="0.879" stroke-miterlimit="10" stroke-linecap="round" stroke-linejoin="round"/>
<path d="M-1443.1 389.082C-412.741 -667.435 -185.098 2510.97 1440.76 323.935" stroke="black" stroke-width="0.8548" stroke-miterlimit="10" stroke-linecap="round" stroke-linejoin="round"/>
<path d="M-1440.83 432.986C-382.37 -709.569 -132.019 2481.94 1448.14 380.939" stroke="black" stroke-width="0.8306" stroke-miterlimit="10" stroke-linecap="round" stroke-linejoin="round"/>
<path d="M-1438.84 476.535C-352.567 -751.702 -79.5084 2452.55 1455.24 437.234" stroke="black" stroke-width="0.8065" stroke-miterlimit="10" stroke-linecap="round" stroke-linejoin="round"/>
<path d="M-1436.57 520.085C-322.195 -793.835 -26.4287 2423.16 1462.9 493.884" stroke="black" stroke-width="0.7823" stroke-miterlimit="10" stroke-linecap="round" stroke-linejoin="round"/>
<path d="M-1434.3 563.634C-291.825 -836.323 26.6489 2393.42 1470.28 550.534" stroke="black" stroke-width="0.7581" stroke-miterlimit="10" stroke-linecap="round" stroke-linejoin="round"/>
<path d="M-1432.31 607.538C-262.021 -878.102 79.1595 2364.39 1477.38 607.538" stroke="black" stroke-width="0.7339" stroke-miterlimit="10" stroke-linecap="round" stroke-linejoin="round"/>
<path d="M-1430.04 651.087C-231.649 -920.235 132.24 2335 1485.04 664.187" stroke="black" stroke-width="0.7097" stroke-miterlimit="10" stroke-linecap="round" stroke-linejoin="round"/>
<path d="M-1427.77 694.637C-201.278 -962.722 185.318 2305.61 1492.42 720.837" stroke="black" stroke-width="0.6855" stroke-miterlimit="10" stroke-linecap="round" stroke-linejoin="round"/>
<path d="M-1425.78 738.54C-171.475 -1004.5 237.829 2276.58 1499.52 777.487" stroke="black" stroke-width="0.6613" stroke-miterlimit="10" stroke-linecap="round" stroke-linejoin="round"/>
<path d="M-1423.51 782.09C-141.103 -1046.63 290.909 2247.19 1507.18 834.137" stroke="black" stroke-width="0.6371" stroke-miterlimit="10" stroke-linecap="round" stroke-linejoin="round"/>
<path d="M-1421.24 825.639C-111.015 -1089.12 343.703 2217.81 1514.56 890.786" stroke="black" stroke-width="0.6129" stroke-miterlimit="10" stroke-linecap="round" stroke-linejoin="round"/>
<path d="M-1419.25 869.188C-80.9281 -1131.26 396.498 2188.07 1521.66 947.436" stroke="black" stroke-width="0.5887" stroke-miterlimit="10" stroke-linecap="round" stroke-linejoin="round"/>
<path d="M-1416.98 913.092C-50.556 -1173.39 449.578 2159.03 1529.32 1004.44" stroke="black" stroke-width="0.5645" stroke-miterlimit="10" stroke-linecap="round" stroke-linejoin="round"/>
<path d="M-1414.71 956.641C-20.1834 -1215.52 502.658 2129.65 1536.7 1060.74" stroke="black" stroke-width="0.5403" stroke-miterlimit="10" stroke-linecap="round" stroke-linejoin="round"/>
<path d="M-1412.72 1000.19C9.90379 -1257.66 555.453 2100.26 1544.08 1117.39" stroke="black" stroke-width="0.5161" stroke-miterlimit="10" stroke-linecap="round" stroke-linejoin="round"/>
<path d="M-1410.45 1044.09C39.9911 -1299.79 608.248 2071.22 1551.46 1174.39" stroke="black" stroke-width="0.4919" stroke-miterlimit="10" stroke-linecap="round" stroke-linejoin="round"/>
<path d="M-1408.18 1087.64C70.362 -1341.92 661.326 2041.84 1558.84 1231.04" stroke="black" stroke-width="0.4677" stroke-miterlimit="10" stroke-linecap="round" stroke-linejoin="round"/>
<path d="M-1406.2 1131.19C100.45 -1384.05 714.122 2012.45 1565.94 1287.69" stroke="black" stroke-width="0.4435" stroke-miterlimit="10" stroke-linecap="round" stroke-linejoin="round"/>
<path d="M-1403.93 1174.74C130.536 -1426.54 766.915 1982.71 1573.6 1343.98" stroke="black" stroke-width="0.4194" stroke-miterlimit="10" stroke-linecap="round" stroke-linejoin="round"/>
<path d="M-1401.66 1218.65C160.908 -1468.32 819.995 1953.68 1580.98 1400.99" stroke="black" stroke-width="0.3952" stroke-miterlimit="10" stroke-linecap="round" stroke-linejoin="round"/>
<path d="M-1399.67 1262.2C190.995 -1510.45 872.789 1924.29 1588.36 1457.64" stroke="black" stroke-width="0.371" stroke-miterlimit="10" stroke-linecap="round" stroke-linejoin="round"/>
<path d="M-1397.4 1305.75C221.082 -1552.94 925.584 1894.9 1595.74 1514.29" stroke="black" stroke-width="0.3468" stroke-miterlimit="10" stroke-linecap="round" stroke-linejoin="round"/>
<path d="M-1395.13 1349.65C251.454 -1594.72 978.664 1865.87 1603.12 1571.29" stroke="black" stroke-width="0.3226" stroke-miterlimit="10" stroke-linecap="round" stroke-linejoin="round"/>
<path d="M-1393.14 1393.2C281.542 -1637.21 1031.46 1836.48 1610.22 1627.59" stroke="black" stroke-width="0.2984" stroke-miterlimit="10" stroke-linecap="round" stroke-linejoin="round"/>
<path d="M-1390.87 1436.75C311.629 -1679.34 1084.25 1807.1 1617.88 1684.24" stroke="black" stroke-width="0.2742" stroke-miterlimit="10" stroke-linecap="round" stroke-linejoin="round"/>
<path d="M-1388.6 1480.3C342.001 -1721.47 1137.33 1777.71 1625.26 1740.89" stroke="black" stroke-width="0.25" stroke-miterlimit="10" stroke-linecap="round" stroke-linejoin="round"/>
<path d="M1330.35 1480.65C282.96 2045.02 180.492 920.174 -1110.72 1603.16" stroke="black" stroke-width="2.7419" stroke-miterlimit="10" stroke-linecap="round" stroke-linejoin="round" stroke-dasharray="1 1"/>
<path d="M1333.75 1448.43C257.982 2048.21 144.728 886.184 -1113.27 1544.03" stroke="black" stroke-width="2.6774" stroke-miterlimit="10" stroke-linecap="round" stroke-linejoin="round" stroke-dasharray="1 1"/>
<path d="M1337.16 1416.21C233.004 2051.4 108.964 852.194 -1115.82 1484.9" stroke="black" stroke-width="2.6129" stroke-miterlimit="10" stroke-linecap="round" stroke-linejoin="round" stroke-dasharray="1 1"/>
<path d="M1340.28 1383.99C208.026 2054.58 73.2 818.204 -1118.66 1425.42" stroke="black" stroke-width="2.5484" stroke-miterlimit="10" stroke-linecap="round" stroke-linejoin="round" stroke-dasharray="1 1"/>
<path d="M1343.69 1351.42C183.048 2057.42 37.7191 783.86 -1121.22 1365.94" stroke="black" stroke-width="2.4839" stroke-miterlimit="10" stroke-linecap="round" stroke-linejoin="round" stroke-dasharray="1 1"/>
<path d="M1347.09 1319.2C158.068 2060.6 1.95371 749.871 -1123.77 1306.45" stroke="black" stroke-width="2.4194" stroke-miterlimit="10" stroke-linecap="round" stroke-linejoin="round" stroke-dasharray="1 1"/>
<path d="M1350.22 1286.98C133.091 2063.79 -33.8092 715.881 -1126.61 1247.33" stroke="black" stroke-width="2.3548" stroke-miterlimit="10" stroke-linecap="round" stroke-linejoin="round" stroke-dasharray="1 1"/>
<path d="M1353.62 1254.76C108.112 2066.62 -69.5746 681.89 -1129.45 1188.2" stroke="black" stroke-width="2.2903" stroke-miterlimit="10" stroke-linecap="round" stroke-linejoin="round" stroke-dasharray="1 1"/>
<path d="M1356.74 1222.54C82.8512 2070.16 -105.338 647.901 -1132 1128.72" stroke="black" stroke-width="2.2258" stroke-miterlimit="10" stroke-linecap="round" stroke-linejoin="round" stroke-dasharray="1 1"/>
<path d="M1360.15 1189.97C58.1563 2072.64 -141.102 613.557 -1134.84 1069.23" stroke="black" stroke-width="2.1613" stroke-miterlimit="10" stroke-linecap="round" stroke-linejoin="round" stroke-dasharray="1 1"/>
<path d="M1363.56 1157.75C33.1778 2075.83 -176.867 579.567 -1137.4 1010.11" stroke="black" stroke-width="2.0968" stroke-miterlimit="10" stroke-linecap="round" stroke-linejoin="round" stroke-dasharray="1 1"/>
<path d="M1366.68 1125.53C7.91524 2079.01 -212.632 545.577 -1140.24 950.622" stroke="black" stroke-width="2.0323" stroke-miterlimit="10" stroke-linecap="round" stroke-linejoin="round" stroke-dasharray="1 1"/>
<path d="M1370.08 1093.31C-17.0632 2082.2 -248.396 511.233 -1142.79 891.14" stroke="black" stroke-width="1.9677" stroke-miterlimit="10" stroke-linecap="round" stroke-linejoin="round" stroke-dasharray="1 1"/>
<path d="M1373.49 1060.74C-42.0414 2085.03 -284.161 477.243 -1145.34 832.012" stroke="black" stroke-width="1.9032" stroke-miterlimit="10" stroke-linecap="round" stroke-linejoin="round" stroke-dasharray="1 1"/>
<path d="M1376.61 1028.52C-67.0192 2088.22 -319.641 443.253 -1148.18 772.53" stroke="black" stroke-width="1.8387" stroke-miterlimit="10" stroke-linecap="round" stroke-linejoin="round" stroke-dasharray="1 1"/>
<path d="M1380.02 996.296C-91.9984 2091.41 -355.406 409.264 -1150.74 713.402" stroke="black" stroke-width="1.7742" stroke-miterlimit="10" stroke-linecap="round" stroke-linejoin="round" stroke-dasharray="1 1"/>
<path d="M1383.43 964.077C-116.692 2094.59 -391.17 374.92 -1153.29 653.92" stroke="black" stroke-width="1.7097" stroke-miterlimit="10" stroke-linecap="round" stroke-linejoin="round" stroke-dasharray="1 1"/>
<path d="M1386.55 931.503C-141.954 2097.43 -426.934 340.93 -1156.13 594.437" stroke="black" stroke-width="1.6452" stroke-miterlimit="10" stroke-linecap="round" stroke-linejoin="round" stroke-dasharray="1 1"/>
<path d="M1389.95 899.284C-166.932 2100.26 -462.698 306.586 -1158.97 534.955" stroke="black" stroke-width="1.5806" stroke-miterlimit="10" stroke-linecap="round" stroke-linejoin="round" stroke-dasharray="1 1"/>
<path d="M1393.08 867.064C-191.911 2103.44 -498.463 272.596 -1161.52 475.827" stroke="black" stroke-width="1.5161" stroke-miterlimit="10" stroke-linecap="round" stroke-linejoin="round" stroke-dasharray="1 1"/>
<path d="M1396.48 834.845C-216.889 2106.63 -534.227 238.606 -1164.36 416.699" stroke="black" stroke-width="1.4516" stroke-miterlimit="10" stroke-linecap="round" stroke-linejoin="round" stroke-dasharray="1 1"/>
<path d="M1399.89 802.625C-241.868 2109.82 -569.992 204.616 -1166.92 357.217" stroke="black" stroke-width="1.3871" stroke-miterlimit="10" stroke-linecap="round" stroke-linejoin="round" stroke-dasharray="1 1"/>
<path d="M1403.01 770.052C-266.847 2112.65 -605.757 170.627 -1169.76 297.735" stroke="black" stroke-width="1.3226" stroke-miterlimit="10" stroke-linecap="round" stroke-linejoin="round" stroke-dasharray="1 1"/>
<path d="M1406.42 737.832C-291.824 2115.84 -641.52 136.283 -1172.31 238.607" stroke="black" stroke-width="1.2581" stroke-miterlimit="10" stroke-linecap="round" stroke-linejoin="round" stroke-dasharray="1 1"/>
<path d="M1409.82 705.613C-316.803 2119.02 -677.285 102.293 -1175.15 179.124" stroke="black" stroke-width="1.1935" stroke-miterlimit="10" stroke-linecap="round" stroke-linejoin="round" stroke-dasharray="1 1"/>
<path d="M1412.95 673.393C-341.781 2122.21 -713.05 68.3034 -1177.7 119.996" stroke="black" stroke-width="1.129" stroke-miterlimit="10" stroke-linecap="round" stroke-linejoin="round" stroke-dasharray="1 1"/>
<path d="M1416.35 640.82C-366.759 2125.04 -748.53 33.9593 -1180.54 60.1598" stroke="black" stroke-width="1.0645" stroke-miterlimit="10" stroke-linecap="round" stroke-linejoin="round" stroke-dasharray="1 1"/>
<path d="M1419.47 608.6C-392.022 2128.23 -784.578 -0.0307792 -1183.38 1.0314" stroke="black" stroke-miterlimit="10" stroke-linecap="round" stroke-linejoin="round" stroke-dasharray="1 1"/>
</g>
</svg>
