<svg width="1770" height="2269" viewBox="0 0 1770 2269" fill="none" xmlns="http://www.w3.org/2000/svg">
<path fill-rule="evenodd" clip-rule="evenodd" d="M1069.81 2041.01L1016.38 1908.5L1143.72 1918.74L1069.81 2041.01Z" fill="#C5D0FF"/>
<path fill-rule="evenodd" clip-rule="evenodd" d="M723.431 1612.84L792.262 1442.14L628.205 1455.31L723.431 1612.84Z" fill="#FFDAC9"/>
<path fill-rule="evenodd" clip-rule="evenodd" d="M831.928 1257.21C831.928 1257.21 759.572 1257.01 683.269 1298.76L789.487 1465.48C789.487 1465.48 862.336 1453.53 889.572 1314.66C890.071 1311.98 890.949 1306.96 890.949 1306.96L831.928 1257.21Z" fill="#000045"/>
<path fill-rule="evenodd" clip-rule="evenodd" d="M1059.95 1266.09C1059.95 1266.09 1132.3 1265.89 1208.6 1307.65L1102.39 1474.36C1102.39 1474.36 1029.55 1462.43 1002.31 1323.54C1001.91 1321.36 1001.11 1317.13 1001.11 1317.13L1059.95 1266.09Z" fill="#000045"/>
<path fill-rule="evenodd" clip-rule="evenodd" d="M869.241 1298.08L857.788 1378.23L927.783 1421.85L1019.57 1401.02L1041.68 1293.23L869.241 1298.08Z" fill="#FFC8A3"/>
<path fill-rule="evenodd" clip-rule="evenodd" d="M892.825 1328.29L913.258 1384.53L1022.54 1386.81L1037.45 1313.66L892.825 1328.29Z" fill="#E89B68"/>
<path fill-rule="evenodd" clip-rule="evenodd" d="M800.043 1132.64C800.043 1132.64 755.925 1126.41 743.388 1164.51C731.346 1200.75 764.708 1229.86 800.043 1227.88C800.043 1227.88 832.427 1331.24 933.709 1336.57C1052.25 1342.79 1107.82 1249.51 1107.82 1249.51C1107.82 1249.51 1172.37 1252.86 1180.17 1204.8C1188.37 1154.64 1126.38 1147.14 1126.38 1147.14L1120.25 1102.13L1047.4 1012.5L859.163 1044.29L812.293 1086.14L800.043 1132.64Z" fill="#FFC8A3"/>
<path fill-rule="evenodd" clip-rule="evenodd" d="M832.068 1081.41C826.102 1077.75 798.128 1327.29 794.257 1339.82C792.361 1345.94 781.407 1116.94 805.391 1034.32C837.835 922.88 970.503 890.703 1074.02 934.726C1177.42 978.751 1183.88 1096.31 1160.4 1159.19L1126.06 1147.94C1126.06 1147.94 1046.25 1363.92 1041.18 1361.65C1029.82 1356.52 1100.7 1127.21 1100.7 1127.21L1034.71 1102.63V1058.51L1009.13 1098.68C1009.13 1098.68 872.673 1072.82 832.068 1081.41Z" fill="#000045"/>
<path fill-rule="evenodd" clip-rule="evenodd" d="M1113.15 1195.82L1152.44 1192.15C1154.71 1191.97 1156.39 1189.89 1156.19 1187.62C1155.99 1185.34 1153.91 1183.77 1151.64 1183.97L1112.45 1187.62C1110.19 1187.82 1108.5 1189.89 1108.7 1192.07C1108.9 1194.32 1110.97 1196.02 1113.15 1195.82Z" fill="#000045"/>
<path fill-rule="evenodd" clip-rule="evenodd" d="M1122.33 1193.04L1131.9 1215.15C1132.78 1217.23 1135.26 1218.22 1137.33 1217.23C1139.41 1216.35 1140.28 1213.97 1139.41 1211.9L1129.83 1189.79C1128.93 1187.72 1126.58 1186.72 1124.5 1187.72C1122.43 1188.59 1121.43 1190.97 1122.33 1193.04Z" fill="#000045"/>
<path fill-rule="evenodd" clip-rule="evenodd" d="M762.535 1173.11L788.49 1184.56C790.565 1185.54 792.94 1184.56 793.917 1182.49C794.815 1180.41 793.837 1177.94 791.762 1177.06L765.893 1165.51C763.82 1164.61 761.354 1165.61 760.464 1167.68C759.479 1169.76 760.462 1172.11 762.535 1173.11Z" fill="#000045"/>
<path fill-rule="evenodd" clip-rule="evenodd" d="M940.114 1200.15L926.586 1227.2C925.608 1229.28 926.386 1231.73 928.461 1232.73C930.436 1233.71 933.01 1232.93 933.988 1230.85L947.516 1203.8C948.514 1201.82 947.715 1199.37 945.64 1198.37C943.666 1197.29 941.211 1198.17 940.114 1200.15Z" fill="#000045"/>
<path fill-rule="evenodd" clip-rule="evenodd" d="M992.81 1196C992.81 1196 1006.84 1179.02 1035.17 1187.52C1037.43 1188.12 1039.7 1186.92 1040.3 1184.74C1041 1182.59 1039.7 1180.21 1037.54 1179.61C1003.19 1169.36 986.404 1190.87 986.404 1190.87C984.928 1192.64 985.227 1195.22 987.003 1196.69C988.78 1198.07 991.334 1197.77 992.81 1196Z" fill="#000045"/>
<path fill-rule="evenodd" clip-rule="evenodd" d="M909.007 1179.58C909.007 1179.58 899.729 1153.91 863.893 1153.01C861.639 1152.9 859.683 1154.76 859.663 1157.03C859.563 1159.28 861.339 1161.11 863.694 1161.25C893.265 1161.97 901.306 1182.47 901.306 1182.47C902.164 1184.6 904.519 1185.68 906.634 1184.92C908.788 1184.06 909.865 1181.71 909.007 1179.58Z" fill="#000045"/>
<path fill-rule="evenodd" clip-rule="evenodd" d="M1000.81 1130.47C1000.81 1130.47 1032.9 1113.69 1057.08 1144.28C1058.46 1146.06 1061.13 1146.36 1062.91 1144.88C1064.68 1143.5 1064.98 1140.93 1063.6 1139.15C1034.97 1103.03 996.961 1123.16 996.961 1123.16C994.986 1124.25 994.207 1126.72 995.285 1128.79C996.382 1130.76 998.836 1131.55 1000.81 1130.47Z" fill="#000045"/>
<path fill-rule="evenodd" clip-rule="evenodd" d="M930.078 1124.43C930.078 1124.43 905.057 1089.45 863.315 1109C861.28 1109.98 860.402 1112.4 861.38 1114.43C862.298 1116.55 864.832 1117.48 866.847 1116.5C902.144 1099.91 923.374 1129.25 923.374 1129.25C924.651 1131.1 927.205 1131.49 929.061 1130.21C930.956 1128.84 931.355 1126.28 930.078 1124.43Z" fill="#000045"/>
<path fill-rule="evenodd" clip-rule="evenodd" d="M819.398 1352.27C806.548 1364.1 786.515 1363.42 774.583 1350.67C762.436 1337.84 763.028 1317.71 775.86 1305.58C788.011 1294.23 806.069 1293.53 815.148 1307.45C817.722 1311.5 816.924 1316.53 814.849 1320.48C813.173 1323.44 810.799 1326.21 807.646 1326.21C805.671 1326.31 803.695 1325.01 801.72 1322.84C797.869 1318.71 791.364 1318.41 787.214 1322.26C783.064 1326.11 782.764 1332.62 786.615 1336.87C793.619 1344.27 801.141 1346.94 807.945 1346.84C818.101 1346.64 827.579 1340.02 832.906 1330.34C838.453 1320.09 839.231 1306.76 832.327 1296.2C815.946 1271.12 783.562 1270.14 761.745 1290.67C740.72 1310.51 739.733 1343.67 759.574 1364.8C779.411 1385.83 812.673 1386.81 833.704 1366.98C833.804 1366.88 833.903 1366.78 834.003 1366.78L915.631 1289.88C919.781 1285.93 919.981 1279.42 916.03 1275.27C912.179 1271.22 905.655 1271.02 901.524 1274.87L819.596 1352.07C819.498 1352.07 819.498 1352.17 819.398 1352.27Z" fill="#FF0206"/>
<path fill-rule="evenodd" clip-rule="evenodd" d="M905.116 1276.25L916.13 1285.93C917.806 1287.42 920.44 1287.26 921.936 1285.59C923.433 1283.83 923.233 1281.3 921.537 1279.78L910.523 1270.1C908.827 1268.59 906.193 1268.77 904.716 1270.44C903.201 1272.2 903.42 1274.73 905.116 1276.25Z" fill="#000045"/>
<path fill-rule="evenodd" clip-rule="evenodd" d="M663.728 2264.03L648.823 2259.4L675.277 1610.68L803.695 1404.49L826.701 1401.32C826.701 1401.32 838.633 1372.5 847.233 1366.38C847.233 1366.38 961.345 1357.8 1024.52 1380.98C1028.75 1382.66 1031.62 1386.71 1031.62 1391.36C1031.62 1396.29 1031.62 1401.72 1031.62 1401.72L977.527 2264.03H663.728V2264.03Z" fill="white"/>
<path fill-rule="evenodd" clip-rule="evenodd" d="M1019.27 1409.42C1019.27 1409.42 1083.64 1429.75 1117 1440.3C1128.95 1444.05 1137.83 1454.33 1139.81 1466.76C1148.09 1518.58 1169.32 1651.75 1169.32 1651.75L1152.93 2264.03H941.491C941.691 2149.94 945.841 1717.69 998.557 1466.76C1003.39 1443.67 1009.51 1426.2 1019.27 1409.42Z" fill="#277338"/>
<path fill-rule="evenodd" clip-rule="evenodd" d="M777.636 1390.36C777.636 1390.36 719.798 1405.27 686.039 1413.87C670.839 1417.82 658.105 1427.97 650.997 1442C627.406 1488.29 574.694 1591.93 574.694 1591.93L575.384 1593.12C575.384 1593.12 494.444 2058.63 455.553 2257.32C455.158 2259.7 455.158 2261.97 455.751 2264.03H693.241C713.082 2003.34 757.797 1647.3 820.075 1402.31C820.075 1402.31 794.516 1399.26 777.636 1390.36Z" fill="#277338"/>
<path fill-rule="evenodd" clip-rule="evenodd" d="M1111.97 707.79L1145.53 766.915C1146.61 768.89 1149.18 769.581 1151.16 768.395C1153.13 767.31 1153.81 764.845 1152.64 762.87L1119.07 703.741C1118 701.768 1115.52 701.079 1113.55 702.165C1111.57 703.251 1110.87 705.817 1111.97 707.79Z" fill="#AB3DFF"/>
<path fill-rule="evenodd" clip-rule="evenodd" d="M1405.9 457.03C1406.42 457.98 1406.98 458.943 1407.58 459.922C1417.83 476.469 1440.94 496.783 1485.63 518.614C1487.69 519.608 1490.14 518.762 1491.14 516.724C1492.14 514.677 1491.3 512.213 1489.24 511.219C1450.93 492.517 1429.06 475.247 1417.93 460.489C1424.69 461.223 1431.86 460.008 1439.38 456.221C1446.08 452.843 1450 445.815 1450.63 438.122C1451.57 426.914 1445.57 414.563 1432.44 411.307C1420.66 408.394 1405.84 415.396 1401.59 429.463C1400.27 433.781 1399.95 438.809 1401.11 444.434C1397.88 441.932 1394.83 438.963 1391.97 435.736C1373.1 414.488 1362.2 381.547 1362.2 381.547C1361.48 379.396 1359.15 378.231 1356.99 378.943C1354.84 379.655 1353.68 381.992 1354.38 384.143C1354.38 384.143 1365.93 418.813 1385.81 441.2C1391.81 447.951 1398.54 453.588 1405.9 457.03ZM1411.83 450.549C1419.11 453.239 1427.07 453.21 1435.69 448.874C1439.86 446.771 1442.03 442.23 1442.43 437.439C1443.05 429.921 1439.26 421.47 1430.44 419.294C1422.4 417.297 1412.36 422.236 1409.45 431.851C1407.91 436.945 1408.39 443.252 1411.83 450.549Z" fill="#AB3DFF"/>
<path fill-rule="evenodd" clip-rule="evenodd" d="M834.482 758.968C836.278 755.031 837.156 750.46 836.896 745.174C836.597 739.35 832.885 734.347 827.618 731.476C820.016 727.33 809.461 727.745 803.076 735.977C797.369 743.34 797.669 755.932 806.229 763.297C808.204 764.997 810.639 766.444 813.572 767.439C811.776 768.251 809.881 768.959 807.945 769.578C788.531 775.783 763.761 773.369 763.761 773.369C761.498 773.152 759.485 774.808 759.27 777.068C759.056 779.331 760.713 781.34 762.973 781.558C762.973 781.558 789.588 784.082 810.459 777.414C816.704 775.411 822.451 772.603 826.96 768.76C827.638 768.696 828.337 768.616 829.055 768.516C843.142 766.561 863.594 757.171 891.409 733.736C893.145 732.273 893.364 729.676 891.908 727.942C890.451 726.202 887.858 725.981 886.122 727.443C864.113 745.987 847.173 755.393 834.482 758.968ZM823.428 760.71C826.94 756.925 829.015 752.012 828.696 745.588C828.536 742.589 826.381 740.175 823.668 738.698C819.318 736.326 813.232 736.304 809.561 741.017C806.209 745.349 806.548 752.729 811.576 757.061C814.25 759.363 818.181 760.746 823.428 760.71Z" fill="#FF3D3D"/>
<path fill-rule="evenodd" clip-rule="evenodd" d="M1615.67 362.017L1619.32 460.034C1619.42 462.305 1621.29 464.081 1623.57 463.983C1625.84 463.883 1627.62 462.008 1627.62 459.737L1623.97 361.719C1623.87 359.448 1621.89 357.672 1619.62 357.77C1617.34 357.87 1615.57 359.746 1615.67 362.017Z" fill="#FF3D3D"/>
<path fill-rule="evenodd" clip-rule="evenodd" d="M1098.64 453.617L1105.15 479.083C1105.15 479.083 1144.93 500.008 1180.57 484.905L1176.52 446.607C1176.52 446.607 1135.46 463.487 1098.64 453.617Z" fill="#FF7A3D"/>
<path fill-rule="evenodd" clip-rule="evenodd" d="M573.017 657.155C573.017 657.155 606.381 653.306 636.685 623.101L647.835 646.594C647.835 646.594 635.895 696.636 589.502 707.397L573.017 657.155Z" fill="#AB3DFF"/>
<path fill-rule="evenodd" clip-rule="evenodd" d="M1268.52 924.753L1285.98 896.918C1285.98 896.918 1291.61 936.302 1323.2 952.094L1310.37 958.413C1310.37 958.413 1289.53 961.867 1268.52 924.753Z" fill="#00FF2F"/>
<path fill-rule="evenodd" clip-rule="evenodd" d="M849.208 473.457C840.229 473.457 833.006 480.764 833.006 489.647C833.006 498.63 840.229 505.833 849.208 505.833C858.087 505.833 865.39 498.63 865.39 489.647C865.389 480.764 858.087 473.457 849.208 473.457ZM849.208 481.75C853.538 481.75 857.089 485.304 857.089 489.647C857.089 494.089 853.537 497.64 849.208 497.64C844.758 497.64 841.207 494.088 841.207 489.647C841.206 485.303 844.758 481.75 849.208 481.75Z" fill="#00FF2F"/>
<path fill-rule="evenodd" clip-rule="evenodd" d="M1558.82 269.327C1549.84 269.327 1542.64 276.634 1542.64 285.517C1542.64 294.5 1549.84 301.705 1558.82 301.705C1567.7 301.705 1575 294.5 1575 285.517C1575 276.633 1567.7 269.327 1558.82 269.327ZM1558.82 277.621C1563.15 277.621 1566.72 281.175 1566.72 285.516C1566.72 289.958 1563.15 293.509 1558.82 293.509C1554.37 293.509 1550.82 289.957 1550.82 285.516C1550.82 281.175 1554.37 277.621 1558.82 277.621Z" fill="#00FF2F"/>
<path fill-rule="evenodd" clip-rule="evenodd" d="M636.879 994.05C628.489 994.05 621.581 1000.96 621.581 1009.35C621.581 1017.84 628.489 1024.65 636.879 1024.65C645.369 1024.65 652.277 1017.84 652.277 1009.35C652.276 1000.96 645.369 994.05 636.879 994.05ZM636.879 1002.24C640.828 1002.24 643.986 1005.5 643.986 1009.35C643.986 1013.3 640.827 1016.45 636.879 1016.45C633.03 1016.45 629.774 1013.3 629.774 1009.35C629.773 1005.5 633.03 1002.24 636.879 1002.24Z" fill="#FF7A3D"/>
<path fill-rule="evenodd" clip-rule="evenodd" d="M1470.27 305.306C1470.27 305.306 1478.51 306.761 1480.62 313.347C1481.62 316.266 1481.2 320.127 1478.73 325.217C1472.58 337.777 1473.36 346.248 1476.95 351.815C1480.58 357.45 1487.61 360.499 1495.25 361.658C1501.51 362.576 1508.52 365.559 1510.47 371.365C1511.77 375.154 1510.57 379.967 1506.12 385.925C1499.58 394.702 1498.34 402.883 1500.1 409.466C1502.81 419.59 1512.81 426.536 1524.44 426.869C1526.72 426.959 1528.59 425.165 1528.69 422.902C1528.77 420.639 1526.97 418.728 1524.7 418.674C1516.86 418.413 1509.85 414.183 1508.06 407.375C1506.8 402.718 1508.12 397.049 1512.75 390.844C1519.37 381.867 1520.21 374.427 1518.23 368.71C1515.32 360.174 1505.68 354.882 1496.51 353.514C1491.26 352.746 1486.33 351.16 1483.86 347.321C1481.36 343.448 1481.82 337.596 1486.11 328.832C1489.86 321.124 1489.9 315.202 1488.44 310.792C1484.95 300.091 1471.9 297.23 1471.9 297.23C1469.67 296.803 1467.51 298.236 1467.04 300.462C1466.58 302.688 1468.01 304.879 1470.27 305.306Z" fill="#FF7A3D"/>
<path fill-rule="evenodd" clip-rule="evenodd" d="M29.179 2268.1H1546.93C1549.18 2268.1 1551.06 2266.3 1551.06 2264.05C1551.06 2261.79 1549.18 2259.92 1546.93 2259.92H29.179C26.922 2259.92 25.043 2261.79 25.043 2264.05C25.043 2266.3 26.922 2268.1 29.179 2268.1Z" fill="#000045"/>
<path fill-rule="evenodd" clip-rule="evenodd" d="M1612.41 764.944C1612.41 764.944 1604.13 750.336 1594.76 756.161C1585.48 761.885 1604.91 782.22 1609.26 796.335C1613.59 810.45 1627.52 842.335 1621.89 870.467L1649.03 917.943L1673.31 949.036L1721.5 892.475L1612.41 764.944Z" fill="#FFC8A3"/>
<path fill-rule="evenodd" clip-rule="evenodd" d="M1019.37 1409.52C1034.87 1382.86 1059.75 1358.18 1103.17 1315.74C1213.93 1207.85 1289.53 1151 1289.53 1151C1289.53 1151 1465.44 947.657 1498.8 916.464C1532.16 885.371 1555.95 899.881 1555.95 899.881C1555.95 899.881 1584.08 876.883 1598.89 864.744C1604.41 860.3 1612.22 859.905 1618.04 863.954C1635.9 876.588 1671.93 907.386 1682.31 956.05C1683.39 960.787 1682.51 965.819 1679.94 969.965C1670.56 985.165 1647.15 1022.97 1647.15 1022.97C1647.15 1022.97 1649.63 1049.03 1625.74 1085.45C1601.86 1121.97 1433.05 1343.37 1433.05 1343.37L1169.41 1651.05V1651.75L1019.37 1409.52Z" fill="#277338"/>
<path fill-rule="evenodd" clip-rule="evenodd" d="M1653.44 535.528L1500.52 623.809C1500.52 623.809 1686.32 857.803 1720.14 900.325C1723.17 904.128 1728.56 905.144 1732.69 902.755C1741.51 897.671 1756.04 889.285 1764.66 884.304C1768.71 881.968 1770.5 877.151 1768.99 872.713C1751.59 822.017 1653.44 535.528 1653.44 535.528Z" fill="#FF3B30"/>
<path d="M1588.91 600.403C1631.13 576.03 1659.9 546.819 1653.16 535.16C1646.44 523.499 1606.75 533.807 1564.55 558.18C1522.33 582.555 1493.55 611.764 1500.28 623.423C1507.02 635.083 1546.69 624.778 1588.91 600.403Z" fill="#001C8C"/>
<path fill-rule="evenodd" clip-rule="evenodd" d="M1685.76 667.813C1680.44 691.406 1666.91 730.494 1633.74 770.767C1632.25 772.545 1632.55 775.111 1634.22 776.494C1636 777.974 1638.57 777.777 1640.05 776.001C1674.41 734.445 1688.22 694.072 1693.74 669.591C1694.24 667.42 1692.87 665.249 1690.69 664.756C1688.52 664.164 1686.24 665.642 1685.76 667.813Z" fill="white"/>
<path fill-rule="evenodd" clip-rule="evenodd" d="M1712.7 742.838C1706.49 764.06 1694.64 792.491 1672.43 822.203C1671.06 824.079 1671.44 826.645 1673.21 827.927C1675.09 829.31 1677.66 828.915 1678.94 827.137C1701.95 796.439 1714.18 767.122 1720.6 745.21C1721.3 743.037 1720.02 740.768 1717.85 740.078C1715.67 739.486 1713.4 740.667 1712.7 742.838Z" fill="white"/>
<path fill-rule="evenodd" clip-rule="evenodd" d="M1657.03 583.622C1652.98 607.705 1638.17 662.981 1585.28 716.284C1583.7 717.862 1583.7 720.53 1585.28 722.11C1586.96 723.688 1589.53 723.688 1591.11 722.11C1645.78 667.029 1660.88 609.778 1665.13 585.002C1665.53 582.731 1663.95 580.559 1661.78 580.263C1659.5 579.869 1657.43 581.352 1657.03 583.622Z" fill="white"/>
<path fill-rule="evenodd" clip-rule="evenodd" d="M1713.2 710.163C1713.2 710.163 1732.65 716.775 1727.5 737.405C1727.5 737.405 1744.58 750.239 1738.18 766.922C1738.18 766.922 1753.06 772.942 1749.13 790.315C1749.13 790.315 1761.36 795.251 1756.34 808.873C1751.21 822.593 1736.48 834.535 1729.68 833.152C1722.88 831.771 1719.72 822.196 1732.55 808.476C1732.55 808.476 1718.63 820.025 1710.92 812.918C1701.25 803.935 1714.77 790.612 1714.77 790.612C1714.77 790.612 1702.72 796.829 1697.79 789.525C1690.89 779.259 1705.5 763.861 1705.5 763.861C1705.5 763.861 1693.44 772.347 1687.44 770.176C1670.46 763.956 1692.77 728.031 1713.2 710.163Z" fill="#FFC8A3"/>
<path fill-rule="evenodd" clip-rule="evenodd" d="M1713.14 761.38L1726.57 745.661C1728.02 743.903 1727.8 741.319 1726.11 739.851C1724.33 738.365 1721.72 738.568 1720.26 740.326L1706.91 756.065C1705.48 757.823 1705.7 760.411 1707.39 761.879C1709.17 763.366 1711.7 763.138 1713.14 761.38Z" fill="#E89B68"/>
<path fill-rule="evenodd" clip-rule="evenodd" d="M1722.38 788.972L1737.18 773.863C1738.8 772.271 1738.72 769.607 1737.14 768.035C1735.47 766.445 1732.89 766.53 1731.28 768.125L1716.55 783.253C1714.93 784.845 1714.93 787.491 1716.61 789.081C1718.19 790.654 1720.78 790.646 1722.38 788.972Z" fill="#E89B68"/>
<path fill-rule="evenodd" clip-rule="evenodd" d="M1737.94 808.758L1747.48 798.085C1748.99 796.403 1748.86 793.793 1747.16 792.233C1745.48 790.747 1742.87 790.886 1741.35 792.568L1731.82 803.317C1730.3 804.999 1730.44 807.607 1732.11 809.093C1733.79 810.578 1736.4 810.44 1737.94 808.758Z" fill="#E89B68"/>
<path fill-rule="evenodd" clip-rule="evenodd" d="M1169.42 1651.65L1094.29 1530.43L1194.58 1621.54L1169.42 1651.65Z" fill="#2E5236"/>
<path fill-rule="evenodd" clip-rule="evenodd" d="M201.971 841.938C201.971 841.938 207.696 871.945 256.457 894.451L299.298 878.758L278.866 771.955L256.457 760.702L201.971 841.938Z" fill="#FFC8A3"/>
<path fill-rule="evenodd" clip-rule="evenodd" d="M239.281 359.054C239.281 359.054 225.362 449.669 252.803 558.743C279.75 665.941 275.015 769.187 200.095 885.761C123.299 1005.2 156.561 1117.63 156.561 1117.63C157.253 1119.8 159.522 1120.99 161.693 1120.4C163.866 1119.7 165.149 1117.43 164.459 1115.26C164.459 1115.26 132.478 1006.19 207.005 890.203C283.406 771.358 288.34 666.04 260.801 556.768C233.755 449.472 247.375 360.338 247.375 360.338C247.77 358.069 246.19 355.994 243.921 355.601C241.747 355.303 239.576 356.783 239.281 359.054Z" fill="#FF7A3D"/>
<path fill-rule="evenodd" clip-rule="evenodd" d="M125.173 419.366C125.173 419.366 106.619 488.955 184.104 576.311C221.417 618.362 248.856 654.394 257.346 697.923C265.736 741.455 255.175 792.385 217.172 864.344C138.599 1013 236.616 1130.36 236.616 1130.36C238.097 1132.14 240.663 1132.34 242.438 1130.86C244.116 1129.47 244.411 1126.81 242.931 1125.13C242.931 1125.13 148.567 1011.82 224.474 868.196C263.662 793.968 274.123 741.256 265.438 696.344C256.653 651.529 228.716 614.217 190.318 570.883C116.288 487.575 133.069 421.44 133.069 421.44C133.66 419.169 132.379 416.997 130.208 416.404C127.938 415.813 125.766 417.193 125.173 419.366Z" fill="#1A281D"/>
<path fill-rule="evenodd" clip-rule="evenodd" d="M338.979 431.905C338.979 431.905 336.116 435.652 332.957 449.472C328.613 468.424 323.483 508.006 324.964 587.663C326.444 665.644 300.484 717.961 268.7 765.439C247.18 797.52 222.9 827.527 202.368 861.681C150.646 947.557 111.948 1007.47 103.756 1091.37C103.558 1093.64 105.239 1095.62 107.509 1095.82C109.778 1096.11 111.753 1094.44 111.951 1092.17C119.946 1009.55 158.442 950.519 209.376 865.926C229.906 831.872 254.091 802.062 275.511 769.983C308.182 721.22 334.64 667.619 333.157 587.468C331.676 508.994 336.711 469.906 340.955 451.25C343.323 440.984 345.694 436.74 345.694 436.74L342.336 438.518C346.975 434.964 346.582 432.396 344.706 431.014C342.929 429.73 340.361 430.127 338.979 431.905Z" fill="#FF3D3D"/>
<path fill-rule="evenodd" clip-rule="evenodd" d="M224.576 713.421C224.576 713.421 197.528 720.923 199.305 745.306C199.305 745.306 177.488 761.592 183.41 779.853C183.41 779.853 167.817 795.347 174.726 814.695C174.726 814.695 166.138 829.6 174.726 841.642C183.314 853.686 207.695 866.125 219.836 847.468C219.836 847.468 234.841 835.919 231.977 821.312C231.977 821.312 246.09 813.215 247.077 798.705C247.077 798.705 266.028 789.229 265.831 769.093V757.742L224.576 713.421Z" fill="#FFC8A3"/>
<path fill-rule="evenodd" clip-rule="evenodd" d="M335.223 839.471C335.223 839.471 308.671 763.268 304.623 745.5C300.872 729.214 261.786 718.452 233.851 705.62C231.876 704.732 229.505 704.83 227.63 706.115C225.756 707.298 224.671 709.471 224.771 711.644C225.264 722.698 232.074 741.354 266.228 758.53C266.228 758.53 255.469 794.557 266.228 827.033L285.97 864.048L335.223 839.471Z" fill="#FFC8A3"/>
<path fill-rule="evenodd" clip-rule="evenodd" d="M225.565 728.916C230.697 738.589 241.061 749.845 261.493 760.604C259.025 770.475 253.101 800.678 262.381 828.317C263.071 830.488 265.442 831.673 267.613 830.885C269.784 830.192 270.871 827.824 270.181 825.753C259.718 794.461 270.181 759.714 270.181 759.714C270.774 757.739 269.884 755.666 268.106 754.778C247.969 744.71 237.705 734.149 232.869 724.97C231.784 722.995 229.218 722.207 227.242 723.292C225.268 724.376 224.48 726.845 225.565 728.916Z" fill="#E89B68"/>
<path fill-rule="evenodd" clip-rule="evenodd" d="M205.229 757.836C205.229 757.836 218.554 776.588 236.025 790.21C237.803 791.591 240.369 791.295 241.752 789.52C243.133 787.742 242.837 785.176 241.062 783.793C224.577 770.764 211.942 753.097 211.942 753.097C210.561 751.221 207.993 750.826 206.218 752.109C204.341 753.394 203.846 755.96 205.229 757.836Z" fill="#E89B68"/>
<path fill-rule="evenodd" clip-rule="evenodd" d="M190.422 788.142C190.422 788.142 202.264 803.638 219.637 817.26C221.413 818.741 223.983 818.347 225.463 816.57C226.844 814.794 226.546 812.226 224.671 810.845C208.188 797.913 196.934 783.206 196.934 783.206C195.551 781.33 192.985 781.033 191.112 782.416C189.334 783.796 189.039 786.364 190.422 788.142Z" fill="#E89B68"/>
<path fill-rule="evenodd" clip-rule="evenodd" d="M182.52 819.336C182.52 819.336 192.098 833.451 210.259 843.519C212.234 844.606 214.702 843.816 215.788 841.843C216.973 839.868 216.181 837.4 214.208 836.314C197.92 827.331 189.334 814.795 189.334 814.795C188.051 812.82 185.483 812.327 183.607 813.612C181.732 814.895 181.237 817.461 182.52 819.336Z" fill="#E89B68"/>
<path fill-rule="evenodd" clip-rule="evenodd" d="M332.564 418.682L312.032 435.558L368.593 456.287L363.854 430.128C424.362 441.184 491.187 394.989 518.726 319.676C548.831 237.549 520.997 151.673 456.64 128.18C392.281 104.589 315.683 152.168 285.576 234.293C258.037 309.608 279.163 388.082 332.564 418.682Z" fill="#FF3D3D"/>
<path fill-rule="evenodd" clip-rule="evenodd" d="M113.722 411.473C56.1752 406.636 7.1162 348.299 0.700205 273.282C-6.30779 191.452 40.0852 120.579 104.149 115.152C168.211 109.723 225.859 171.609 232.867 253.439C239.284 328.459 200.786 394.296 144.916 408.906L159.23 429.242L102.964 433.981L113.722 411.473Z" fill="#1A281D"/>
<path fill-rule="evenodd" clip-rule="evenodd" d="M227.634 342.672C162.485 325.891 117.375 249.491 124.482 162.034C132.182 66.7818 199.005 -5.67221 273.63 0.349793C348.253 6.46979 402.543 88.6938 394.845 183.947C387.835 271.403 330.981 339.611 263.959 345.533L276.494 371.692L211.05 366.363L227.634 342.672Z" fill="#FF7A3D"/>
<path fill-rule="evenodd" clip-rule="evenodd" d="M166.921 101.239C182.854 68.8213 208.302 44.8503 237.573 35.6253C239.78 34.9583 241.005 32.6023 240.301 30.4713C239.603 28.2643 237.31 27.0813 235.183 27.7533C203.869 37.5803 176.553 63.0123 159.491 97.5653C158.527 99.6363 159.365 102.084 161.434 103.098C163.423 104.104 165.883 103.228 166.921 101.239Z" fill="white"/>
<path fill-rule="evenodd" clip-rule="evenodd" d="M514.474 252.616C513.574 217.239 500.565 185.558 478.237 165.377C476.571 163.799 473.959 163.96 472.487 165.658C470.945 167.33 471.082 169.916 472.772 171.431C493.497 190.279 505.423 219.849 506.273 252.822C506.303 255.071 508.19 256.88 510.459 256.817C512.726 256.75 514.572 254.889 514.474 252.616Z" fill="white"/>
<path fill-rule="evenodd" clip-rule="evenodd" d="M28.5663 215.842C37.4093 186.329 55.4313 162.497 78.8523 150.605C80.8853 149.573 81.6353 147.135 80.6423 145.108C79.5813 143.089 77.1123 142.243 75.0793 143.274C49.8903 156.11 30.2303 181.6 20.6293 213.487C19.9933 215.652 21.2183 217.986 23.3923 218.593C25.5713 219.264 27.8623 218.013 28.5663 215.842Z" fill="white"/>
<path fill-rule="evenodd" clip-rule="evenodd" d="M574.691 1591.93L777.636 1390.46C774.982 1389.08 772.606 1387.61 770.533 1385.91C754.936 1373.48 583.479 1172.51 583.479 1172.51L434.527 915.082C434.527 915.082 410.148 864.148 373.033 870.96C373.033 870.96 353.98 844.406 345.492 832.66C343.024 829.304 338.782 827.624 334.733 828.611C317.46 833.053 271.36 849.241 244.018 900.37C241.847 904.419 241.454 909.157 242.935 913.499C246.489 924.26 253.396 944.789 253.396 944.789C253.396 944.789 243.527 978.057 256.754 1009.15C270.079 1040.24 382.507 1272.9 382.507 1272.9L574.691 1591.93Z" fill="#277338"/>
<path fill-rule="evenodd" clip-rule="evenodd" d="M575.385 1593L651.885 1515.23L557.026 1562.62L575.385 1593Z" fill="#2E5236"/>
</svg>
