<svg id="Capa_1" enable-background="new 0 0 510 510" height="512" viewBox="0 0 510 510" width="512" xmlns="http://www.w3.org/2000/svg" xmlns:xlink="http://www.w3.org/1999/xlink"><linearGradient id="lg1"><stop offset="0" stop-color="#fef0ae"/><stop offset="1" stop-color="#fac600"/></linearGradient><linearGradient id="SVGID_1_" gradientTransform="matrix(.707 -.707 .707 .707 -721.523 -1234.456)" gradientUnits="userSpaceOnUse" x1="-589.235" x2="-589.235" xlink:href="#lg1" y1="1690.829" y2="1801.842"/><linearGradient id="lg2"><stop offset="0" stop-color="#fea613" stop-opacity="0"/><stop offset=".2032" stop-color="#fda215" stop-opacity=".203"/><stop offset=".4052" stop-color="#fb961b" stop-opacity=".405"/><stop offset=".6066" stop-color="#f68225" stop-opacity=".607"/><stop offset=".8066" stop-color="#f06633" stop-opacity=".807"/><stop offset="1" stop-color="#e94444"/></linearGradient><linearGradient id="SVGID_00000107570888914262213770000014247057650233333421_" gradientUnits="userSpaceOnUse" x1="101.379" x2="146.045" xlink:href="#lg2" y1="398.364" y2="471.03"/><linearGradient id="SVGID_00000016053828414538722500000010376416714035182244_" gradientTransform="matrix(.707 -.707 .707 .707 -721.523 -1234.456)" gradientUnits="userSpaceOnUse" x1="-571.19" x2="-475.95" xlink:href="#lg2" y1="1743.71" y2="1743.71"/><linearGradient id="SVGID_00000062172146293208223310000004665018061296968601_" gradientTransform="matrix(.707 -.707 .707 .707 -721.523 -1234.456)" gradientUnits="userSpaceOnUse" x1="-507.707" x2="-427.447" xlink:href="#lg1" y1="1710.02" y2="1772.278"/><linearGradient id="SVGID_00000079457184237638015740000000156398357749114258_" gradientTransform="matrix(.707 -.707 .707 .707 -721.523 -1234.456)" gradientUnits="userSpaceOnUse" x1="-337.162" x2="-494.852" xlink:href="#lg2" y1="1743.71" y2="1743.71"/><linearGradient id="lg3"><stop offset="0" stop-color="#8bc727"/><stop offset=".1318" stop-color="#83c528"/><stop offset=".343" stop-color="#6bbd2b"/><stop offset=".6071" stop-color="#45b131"/><stop offset=".9112" stop-color="#11a038"/><stop offset="1" stop-color="#009b3a"/></linearGradient><linearGradient id="SVGID_00000038373796886739440360000004562325938358291079_" gradientTransform="matrix(.707 -.707 .707 .707 -721.523 -1234.456)" gradientUnits="userSpaceOnUse" x1="-517.972" x2="-517.972" xlink:href="#lg3" y1="1698.483" y2="1775.523"/><linearGradient id="lg4"><stop offset="0" stop-color="#fd9468"/><stop offset=".2243" stop-color="#fc9066"/><stop offset=".4471" stop-color="#f98461"/><stop offset=".6694" stop-color="#f47158"/><stop offset=".8902" stop-color="#ed554c"/><stop offset="1" stop-color="#e94444"/></linearGradient><linearGradient id="SVGID_00000081622430443004237560000002417138137306116761_" gradientTransform="matrix(.707 -.707 .707 .707 -721.523 -1234.456)" gradientUnits="userSpaceOnUse" x1="-564.821" x2="-564.821" xlink:href="#lg4" y1="1702.483" y2="1767.483"/><linearGradient id="lg5"><stop offset="0" stop-color="#0473ce"/><stop offset="1" stop-color="#00366d"/></linearGradient><linearGradient id="SVGID_00000109019395265869260840000010847432546343795634_" gradientTransform="matrix(.707 -.707 .707 .707 -721.523 -1234.456)" gradientUnits="userSpaceOnUse" x1="-671.389" x2="-671.389" xlink:href="#lg5" y1="1726.483" y2="1762.704"/><linearGradient id="SVGID_00000106148003652126414210000003689896625947801527_" gradientTransform="matrix(.707 .707 -.707 .707 -588.638 867.099)" gradientUnits="userSpaceOnUse" x1="129.969" x2="158.255" xlink:href="#lg3" y1="-1227.16" y2="-1227.16"/><linearGradient id="lg6"><stop offset="0" stop-color="#eaf9fa"/><stop offset="1" stop-color="#b4d2e2"/></linearGradient><linearGradient id="SVGID_00000130612304733125540280000003517941900050182552_" gradientTransform="matrix(.959 .284 -.284 .959 -133.891 369.45)" gradientUnits="userSpaceOnUse" x1="334.259" x2="352.734" xlink:href="#lg6" y1="-360.518" y2="-360.518"/><linearGradient id="SVGID_00000139267750328718601900000003802527554576930702_" gradientTransform="matrix(.959 .284 -.284 .959 -133.891 369.45)" gradientUnits="userSpaceOnUse" x1="335.197" x2="344.846" xlink:href="#lg5" y1="-413.99" y2="-404.341"/><linearGradient id="lg7"><stop offset="0" stop-color="#00366d" stop-opacity="0"/><stop offset=".3532" stop-color="#00356a" stop-opacity=".353"/><stop offset=".6" stop-color="#003161" stop-opacity=".6"/><stop offset=".8136" stop-color="#002a52" stop-opacity=".814"/><stop offset="1" stop-color="#00213d"/></linearGradient><linearGradient id="SVGID_00000116926365272535900200000001552710638529105282_" gradientTransform="matrix(.959 .284 -.284 .959 -283.758 93.432)" gradientUnits="userSpaceOnUse" x1="562.46" x2="562.46" xlink:href="#lg7" y1="-186.574" y2="-176.854"/><linearGradient id="SVGID_00000103261706201465908370000010427904819178526859_" gradientTransform="matrix(.959 .284 -.284 .959 -283.758 93.432)" gradientUnits="userSpaceOnUse" x1="564.2" x2="569.954" xlink:href="#lg7" y1="-184.987" y2="-179.233"/><linearGradient id="SVGID_00000039096971062452818410000014428048060370099619_" gradientTransform="matrix(.959 .284 -.284 .959 -133.891 369.45)" gradientUnits="userSpaceOnUse" x1="332.667" x2="347.033" xlink:href="#lg5" y1="-452.123" y2="-437.756"/><linearGradient id="SVGID_00000155865116832814681690000013382156184259305146_" gradientTransform="matrix(.959 .284 -.284 .959 -283.758 93.432)" gradientUnits="userSpaceOnUse" x1="562.46" x2="562.46" xlink:href="#lg7" y1="-222.101" y2="-207.629"/><linearGradient id="SVGID_00000133496175555495528270000016820940042641781633_" gradientTransform="matrix(.959 .284 -.284 .959 -283.758 93.432)" gradientUnits="userSpaceOnUse" x1="565.052" x2="573.619" xlink:href="#lg7" y1="-219.738" y2="-211.17"/><linearGradient id="SVGID_00000003095306309168476070000001060500064299362482_" gradientTransform="matrix(-.284 -.959 -.959 .284 -1987.45 -1484.109)" gradientUnits="userSpaceOnUse" x1="-2310.484" x2="-2292.009" xlink:href="#lg6" y1="-1796.52" y2="-1796.52"/><linearGradient id="SVGID_00000039099804850937240440000004683742245102615705_" gradientTransform="matrix(-.284 -.959 -.959 .284 -1987.45 -1484.109)" gradientUnits="userSpaceOnUse" x1="-2309.546" x2="-2299.898" xlink:href="#lg5" y1="-1849.992" y2="-1840.343"/><linearGradient id="SVGID_00000048471398305479438290000003741895613877586092_" gradientTransform="matrix(-.284 -.959 -.959 .284 -1711.432 -1334.242)" gradientUnits="userSpaceOnUse" x1="-2082.284" x2="-2082.284" xlink:href="#lg7" y1="-1622.576" y2="-1612.856"/><linearGradient id="SVGID_00000045590448470780268810000008705877979805845165_" gradientTransform="matrix(-.284 -.959 -.959 .284 -1711.432 -1334.242)" gradientUnits="userSpaceOnUse" x1="-2080.543" x2="-2074.789" xlink:href="#lg7" y1="-1620.988" y2="-1615.234"/><linearGradient id="SVGID_00000124136336048037635250000007953196828309877651_" gradientTransform="matrix(-.284 -.959 -.959 .284 -1987.45 -1484.109)" gradientUnits="userSpaceOnUse" x1="-2312.077" x2="-2297.71" xlink:href="#lg5" y1="-1888.124" y2="-1873.757"/><linearGradient id="SVGID_00000088126466777385271440000008241315819775251603_" gradientTransform="matrix(-.284 -.959 -.959 .284 -1711.432 -1334.242)" gradientUnits="userSpaceOnUse" x1="-2082.284" x2="-2082.284" xlink:href="#lg7" y1="-1658.103" y2="-1643.63"/><linearGradient id="SVGID_00000059282444030366692710000009258832385136925101_" gradientTransform="matrix(-.284 -.959 -.959 .284 -1711.432 -1334.242)" gradientUnits="userSpaceOnUse" x1="-2079.692" x2="-2071.125" xlink:href="#lg7" y1="-1655.739" y2="-1647.172"/><linearGradient id="SVGID_00000086673690097582518980000005943961732803317181_" gradientUnits="userSpaceOnUse" x1="244.549" x2="261.271" xlink:href="#lg1" y1="103.925" y2="103.925"/><linearGradient id="SVGID_00000136373861220703621490000010879486794907948457_" gradientTransform="matrix(0 1 -1 0 -1618 1064)" gradientUnits="userSpaceOnUse" x1="-819.451" x2="-802.729" xlink:href="#lg1" y1="-2024.075" y2="-2024.075"/><linearGradient id="lg8"><stop offset="0" stop-color="#fd4755"/><stop offset="1" stop-color="#a72b2b"/></linearGradient><linearGradient id="SVGID_00000140697254920416699730000017655471889878612923_" gradientTransform="matrix(.869 .495 -.495 .869 -313.09 627.661)" gradientUnits="userSpaceOnUse" x1="295.462" x2="317.179" xlink:href="#lg8" y1="-843.882" y2="-843.882"/><linearGradient id="SVGID_00000103951167181291699840000004604660146910945969_" gradientTransform="matrix(-.869 .495 .495 .869 -2368.906 627.661)" gradientUnits="userSpaceOnUse" x1="-2749.707" x2="-2674.994" xlink:href="#lg8" y1="975.471" y2="975.471"/><linearGradient id="lg9"><stop offset="0" stop-color="#6e61b6"/><stop offset="1" stop-color="#433f43"/></linearGradient><linearGradient id="SVGID_00000004524651258372674440000000625072243996815524_" gradientTransform="matrix(.996 .087 -.087 .996 -105.192 98.268)" gradientUnits="userSpaceOnUse" x1="476.202" x2="488.13" xlink:href="#lg9" y1="-126.419" y2="-114.49"/><linearGradient id="SVGID_00000050651190374184270710000014878775050038177174_" gradientTransform="matrix(-.087 -.996 -.996 .087 -1716.268 -1320.147)" gradientUnits="userSpaceOnUse" x1="-1637.241" x2="-1625.312" xlink:href="#lg9" y1="-2077.645" y2="-2065.717"/><linearGradient id="SVGID_00000043430740882721777190000016450416294877456784_" gradientTransform="matrix(1 .009 -.009 1 -64.288 .353)" gradientUnits="userSpaceOnUse" x1="310.883" x2="324.529" xlink:href="#lg4" y1="38.128" y2="51.774"/><linearGradient id="SVGID_00000177460994358273838740000011435091776755599039_" gradientTransform="matrix(-.009 1 -1 -.009 -1618.353 999.713)" gradientUnits="userSpaceOnUse" x1="-773.104" x2="-759.458" xlink:href="#lg4" y1="-2079.761" y2="-2066.115"/><linearGradient id="SVGID_00000044859048531919087340000010469089006428876975_" gradientTransform="matrix(-.707 .707 .707 .707 -2093.362 867.099)" gradientUnits="userSpaceOnUse" x1="-2127.116" x2="-2098.83" xlink:href="#lg8" y1="1029.925" y2="1029.925"/><linearGradient id="SVGID_00000137827527414134574990000012600609039564583611_" gradientTransform="matrix(-.707 .707 .707 .707 -2093.362 867.099)" gradientUnits="userSpaceOnUse" x1="-2127.638" x2="-2099.864" xlink:href="#lg8" y1="1425.521" y2="1425.521"/><linearGradient id="SVGID_00000036241657811808541360000015450101641212897923_" gradientUnits="userSpaceOnUse" x1="218.012" x2="278.829" xlink:href="#lg9" y1="262.722" y2="274.228"/><linearGradient id="SVGID_00000183229204408852659840000004155295938349516951_" gradientUnits="userSpaceOnUse" x1="142.91" x2="192.532" xlink:href="#lg9" y1="210.575" y2="219.963"/><linearGradient id="SVGID_00000128475805108669418360000003536889828836891028_" gradientUnits="userSpaceOnUse" x1="266.399" x2="335.503" xlink:href="#lg9" y1="339.304" y2="352.377"/><g><g><g><path d="m29.66 508.532 243.124-92.097-179.219-179.22-92.097 243.125c-6.674 17.619 10.573 34.866 28.192 28.192z" fill="url(#SVGID_1_)"/><path d="m29.66 508.532 243.124-92.097-179.219-179.22-92.097 243.125c-6.674 17.619 10.573 34.866 28.192 28.192z" fill="url(#SVGID_00000107570888914262213770000014247057650233333421_)"/><path d="m138.311 467.374 134.473-50.939-179.219-179.22-50.939 134.474z" fill="url(#SVGID_00000016053828414538722500000010376416714035182244_)"/><path d="m209.419 300.581c49.49 49.49 77.86 101.36 63.365 115.854-14.494 14.495-66.364-13.875-115.854-63.365s-77.86-101.36-63.365-115.855 66.364 13.875 115.854 63.366z" fill="url(#SVGID_00000062172146293208223310000004665018061296968601_)"/><path d="m204.677 305.323c42.72 42.72 68.795 85.91 58.238 96.466-10.556 10.556-53.746-15.518-96.466-58.238s-68.795-85.91-58.238-96.466c10.556-10.556 53.745 15.518 96.466 58.238z" fill="url(#SVGID_00000079457184237638015740000000156398357749114258_)"/></g><path d="m210.422 415.95c-20.065-11.584-43.064-29.913-64.762-51.61s-40.026-44.697-51.61-64.762c-10.621-18.396-12.235-28.518-11.886-32.266l-14.012 36.991c.65 1.26 1.319 2.53 2.026 3.824 12.522 22.896 33.052 49.138 57.805 73.891s50.995 45.282 73.891 57.805c1.293.707 2.564 1.376 3.823 2.026l36.99-14.012c-3.749.347-13.87-1.268-32.265-11.887z" fill="url(#SVGID_00000038373796886739440360000004562325938358291079_)"/><path d="m116.868 393.132c-21.697-21.697-40.026-44.697-51.61-64.762-1.374-2.379-2.59-4.614-3.678-6.72l-11.35 29.963c12.426 19.068 29.359 39.596 48.96 59.197s40.129 36.534 59.196 48.96l29.963-11.35c-2.106-1.087-4.341-2.304-6.72-3.677-20.064-11.585-43.064-29.914-64.761-51.611z" fill="url(#SVGID_00000081622430443004237560000002417138137306116761_)"/><path d="m18.319 435.855-10.111 26.69c5.983 6.792 12.334 13.572 19.004 20.242s13.45 13.021 20.242 19.004l26.69-10.11c-9.762-8.001-19.636-16.953-29.254-26.571-9.618-9.62-18.57-19.494-26.571-29.255z" fill="url(#SVGID_00000109019395265869260840000010847432546343795634_)"/></g><g><path d="m351.642 155.969c28.772-48.743 70.992-84.45 125.615-106.279 6.514-2.603 9.836-9.858 7.504-16.473-2.473-7.018-10.302-10.546-17.208-7.776-75.042 30.094-116.882 80.402-139.028 118.295-12.262 20.981-16.964 41.14-18.547 56.376-.795 7.648 9.44 10.947 13.302 4.299 7.381-12.706 17.322-29.739 28.362-48.442z" fill="url(#SVGID_00000106148003652126414210000003689896625947801527_)"/><g><path d="m284.272 145.278 1.973-40.809c.417-8.635 8.815-14.595 17.104-12.14 8.289 2.455 12.086 12.028 7.733 19.497l-20.571 35.3c-1.766 3.029-6.409 1.654-6.239-1.848z" fill="url(#SVGID_00000130612304733125540280000003517941900050182552_)"/><g><circle cx="308.573" cy="74.138" fill="url(#SVGID_00000139267750328718601900000003802527554576930702_)" r="10.547"/><path d="m298.46 71.142c-1.654 5.585 1.532 11.454 7.117 13.108s11.454-1.532 13.108-7.117c.358-1.21.489-2.432.418-3.623l-19.02-5.634c-.708.96-1.265 2.056-1.623 3.266z" fill="url(#SVGID_00000116926365272535900200000001552710638529105282_)"/><path d="m299.304 79.17c2.779 5.119 9.183 7.016 14.302 4.236 5.119-2.779 7.016-9.183 4.236-14.302-.602-1.109-1.374-2.065-2.266-2.857l-17.433 9.466c.177 1.18.559 2.349 1.161 3.457z" fill="url(#SVGID_00000103261706201465908370000010427904819178526859_)"/></g><g><circle cx="318.684" cy="40.001" fill="url(#SVGID_00000039096971062452818410000014428048060370099619_)" r="15.705"/><path d="m303.626 35.541c-2.463 8.316 2.281 17.055 10.598 19.518 8.316 2.463 17.055-2.281 19.518-10.598.534-1.801.728-3.622.622-5.394l-28.321-8.389c-1.055 1.429-1.883 3.062-2.417 4.863z" fill="url(#SVGID_00000155865116832814681690000013382156184259305146_)"/><path d="m304.883 47.495c4.139 7.622 13.673 10.446 21.295 6.308 7.622-4.139 10.446-13.673 6.308-21.295-.896-1.651-2.046-3.075-3.375-4.254l-25.958 14.094c.265 1.756.833 3.496 1.73 5.147z" fill="url(#SVGID_00000133496175555495528270000016820940042641781633_)"/></g></g><g><path d="m364.722 225.728 40.809-1.973c8.635-.417 14.595-8.815 12.14-17.104-2.455-8.289-12.028-12.085-19.497-7.733l-35.3 20.571c-3.029 1.766-1.654 6.409 1.848 6.239z" fill="url(#SVGID_00000003095306309168476070000001060500064299362482_)"/><g><circle cx="435.862" cy="201.427" fill="url(#SVGID_00000039099804850937240440000004683742245102615705_)" r="10.547"/><path d="m438.858 211.54c-5.585 1.654-11.454-1.532-13.108-7.117s1.532-11.454 7.117-13.108c1.21-.358 2.432-.489 3.623-.418l5.634 19.02c-.96.708-2.056 1.265-3.266 1.623z" fill="url(#SVGID_00000048471398305479438290000003741895613877586092_)"/><path d="m430.83 210.696c-5.119-2.779-7.016-9.183-4.236-14.302 2.779-5.119 9.183-7.016 14.302-4.236 1.109.602 2.065 1.374 2.857 2.266l-9.466 17.433c-1.18-.177-2.349-.559-3.457-1.161z" fill="url(#SVGID_00000045590448470780268810000008705877979805845165_)"/></g><g><circle cx="469.999" cy="191.316" fill="url(#SVGID_00000124136336048037635250000007953196828309877651_)" r="15.705"/><path d="m474.459 206.374c-8.316 2.463-17.055-2.281-19.518-10.598-2.463-8.316 2.281-17.055 10.598-19.518 1.801-.534 3.622-.728 5.394-.622l8.389 28.321c-1.429 1.055-3.062 1.883-4.863 2.417z" fill="url(#SVGID_00000088126466777385271440000008241315819775251603_)"/><path d="m462.505 205.117c-7.622-4.139-10.446-13.673-6.308-21.295 4.139-7.622 13.673-10.446 21.295-6.308 1.651.896 3.076 2.046 4.254 3.375l-14.094 25.958c-1.756-.265-3.496-.833-5.147-1.73z" fill="url(#SVGID_00000059282444030366692710000009258832385136925101_)"/></g></g><path d="m255 163.635c-4.329 0-7.838-3.509-7.838-7.838v-103.744c0-4.329 3.509-7.838 7.838-7.838 4.329 0 7.838 3.509 7.838 7.838v103.744c0 4.329-3.509 7.838-7.838 7.838z" fill="url(#SVGID_00000086673690097582518980000005943961732803317181_)"/><path d="m346.365 255c0-4.329 3.509-7.838 7.838-7.838h103.744c4.329 0 7.838 3.509 7.838 7.838 0 4.329-3.509 7.838-7.838 7.838h-103.744c-4.329 0-7.838-3.509-7.838-7.838z" fill="url(#SVGID_00000136373861220703621490000010879486794907948457_)"/><path d="m394.398 30.969-24.602 43.167c-2.784 4.884-9 6.587-13.884 3.804-4.884-2.784-6.587-9-3.804-13.884l24.425-42.856c2.69-4.719 8.603-6.81 13.481-4.42 2.763 1.354 4.611 3.752 5.361 6.46.683 2.516.415 5.286-.977 7.729z" fill="url(#SVGID_00000140697254920416699730000017655471889878612923_)"/><path d="m432.066 154.088c2.784 4.884 9 6.587 13.884 3.804l42.825-24.407c4.733-2.698 6.849-8.635 4.441-13.522-2.616-5.31-9.114-7.248-14.18-4.361l-43.167 24.602c-4.884 2.784-6.587 9-3.803 13.884z" fill="url(#SVGID_00000103951167181291699840000004604660146910945969_)"/><path d="m393.899 3.588 1.597 4.103c.672 1.726 2.15 3.012 3.954 3.437l4.286 1.011c4.541 1.071 5.883 6.883 2.271 9.836l-3.409 2.787c-1.434 1.173-2.2 2.976-2.047 4.822l.363 4.388c.385 4.649-4.729 7.722-8.653 5.199l-3.704-2.381c-1.558-1.002-3.51-1.172-5.219-.457l-4.061 1.701c-4.303 1.803-8.805-2.111-7.619-6.623l1.12-4.258c.471-1.792.03-3.7-1.178-5.104l-2.873-3.337c-3.044-3.535-.713-9.026 3.944-9.292l4.396-.251c1.85-.106 3.529-1.115 4.49-2.698l2.285-3.764c2.422-3.987 8.365-3.467 10.057.881z" fill="url(#SVGID_00000004524651258372674440000000625072243996815524_)"/><path d="m506.412 116.101-4.103-1.597c-1.726-.672-3.012-2.15-3.437-3.954l-1.01-4.286c-1.071-4.541-6.883-5.883-9.836-2.271l-2.787 3.409c-1.173 1.434-2.976 2.2-4.822 2.047l-4.388-.363c-4.649-.385-7.722 4.729-5.199 8.653l2.381 3.704c1.002 1.558 1.172 3.51.457 5.219l-1.701 4.061c-1.803 4.303 2.111 8.805 6.623 7.619l4.258-1.12c1.792-.471 3.7-.03 5.104 1.178l3.336 2.873c3.535 3.044 9.026.713 9.292-3.944l.251-4.396c.106-1.85 1.115-3.529 2.698-4.49l3.764-2.285c3.987-2.422 3.467-8.365-.881-10.057z" fill="url(#SVGID_00000050651190374184270710000014878775050038177174_)"/><path d="m260.916 28.504 2.186 4.537c.92 1.909 2.72 3.243 4.815 3.568l4.977.771c5.274.817 7.321 7.327 3.465 11.016l-3.64 3.482c-1.531 1.465-2.244 3.589-1.905 5.681l.805 4.972c.853 5.268-4.706 9.227-9.406 6.699l-4.436-2.386c-1.866-1.004-4.107-1.025-5.992-.056l-4.48 2.302c-4.747 2.439-10.23-1.624-9.278-6.875l.898-4.956c.378-2.085-.294-4.223-1.798-5.716l-3.573-3.55c-3.786-3.761-1.617-10.231 3.672-10.948l4.991-.677c2.1-.285 3.925-1.585 4.881-3.476l2.272-4.495c2.406-4.765 9.23-4.701 11.546.107z" fill="url(#SVGID_00000043430740882721777190000016450416294877456784_)"/><path d="m481.496 260.916-4.537 2.186c-1.909.92-3.243 2.72-3.568 4.815l-.771 4.977c-.817 5.274-7.327 7.321-11.016 3.465l-3.482-3.64c-1.465-1.531-3.589-2.244-5.681-1.905l-4.972.805c-5.268.853-9.227-4.706-6.699-9.406l2.386-4.436c1.004-1.866 1.025-4.107.056-5.992l-2.302-4.48c-2.439-4.747 1.624-10.23 6.875-9.278l4.956.898c2.085.378 4.223-.294 5.716-1.798l3.549-3.573c3.761-3.786 10.231-1.617 10.948 3.672l.677 4.991c.285 2.1 1.585 3.925 3.476 4.881l4.495 2.272c4.766 2.406 4.702 9.23-.106 11.546z" fill="url(#SVGID_00000177460994358273838740000011435091776755599039_)"/></g><g><path d="m158.358 155.969c-28.772-48.743-70.992-84.451-125.615-106.279-6.514-2.603-9.836-9.858-7.504-16.473 2.473-7.018 10.302-10.546 17.208-7.776 75.042 30.094 116.882 80.402 139.028 118.295 12.262 20.981 16.964 41.14 18.547 56.376.795 7.648-9.44 10.947-13.302 4.299-7.381-12.706-17.322-29.739-28.362-48.442z" fill="url(#SVGID_00000044859048531919087340000010469089006428876975_)"/><path d="m354.031 351.642c48.743 28.772 84.45 70.992 106.279 125.615 2.603 6.514 9.858 9.836 16.473 7.504 7.018-2.473 10.546-10.302 7.776-17.208-30.094-75.042-80.402-116.882-118.296-139.028-20.981-12.262-41.14-16.964-56.376-18.547-7.648-.795-10.947 9.44-4.299 13.302 12.707 7.381 29.74 17.322 48.443 28.362z" fill="url(#SVGID_00000137827527414134574990000012600609039564583611_)"/></g><g><path d="m242.631 258.65-7.464 7.464c-2.924 2.924-2.924 7.662 0 10.586 2.923 2.924 7.662 2.924 10.586 0l7.464-7.464c2.923-2.924 2.923-7.662 0-10.586s-7.662-2.924-10.586 0z" fill="url(#SVGID_00000036241657811808541360000015450101641212897923_)"/><path d="m169.213 222.328 3.981-9.776c1.559-3.829-.28-8.196-4.109-9.756-3.829-1.559-8.196.28-9.756 4.109l-3.981 9.776c-1.559 3.829.28 8.196 4.109 9.756 3.829 1.559 8.197-.28 9.756-4.109z" fill="url(#SVGID_00000183229204408852659840000004155295938349516951_)"/><path d="m294.189 353.879 9.728-4.097c3.81-1.605 5.598-5.994 3.993-9.804s-5.994-5.598-9.804-3.993l-9.728 4.097c-3.81 1.605-5.598 5.994-3.993 9.804s5.993 5.597 9.804 3.993z" fill="url(#SVGID_00000128475805108669418360000003536889828836891028_)"/></g></g></svg>