<svg width="83" height="83" viewBox="0 0 83 83" fill="none" xmlns="http://www.w3.org/2000/svg">
<path d="M32.1888 38.987C32.8162 39.226 33.5188 38.911 33.7577 38.2836L34.2765 36.9216H37.8687L38.3814 38.2802C38.5653 38.767 39.0278 39.0671 39.5193 39.0671C39.6618 39.0671 39.807 39.0418 39.9482 38.9885C40.5765 38.7515 40.8936 38.0498 40.6565 37.4217L37.4059 28.8082C37.4016 28.797 37.3973 28.7859 37.3927 28.7749C37.1737 28.2427 36.6606 27.899 36.0853 27.899C36.0848 27.899 36.0843 27.899 36.0839 27.899C35.5079 27.8995 34.9948 28.2445 34.7768 28.7775C34.773 28.7866 34.7693 28.7958 34.7659 28.8051L31.4855 37.4181C31.2465 38.0456 31.5613 38.7481 32.1888 38.987ZM36.9511 34.4899H35.2028L36.0809 32.1841L36.9511 34.4899Z" fill="white"/>
<path d="M27.7756 38.9373C28.4471 38.9373 28.9915 38.393 28.9915 37.7215C28.9915 37.05 28.4471 36.5057 27.7756 36.5057H25.344V34.6092H27.5067C28.1782 34.6092 28.7225 34.0648 28.7225 33.3933C28.7225 32.7219 28.1782 32.1775 27.5067 32.1775H25.344V30.281H27.7756C28.4471 30.281 28.9915 29.7366 28.9915 29.0652C28.9915 28.3937 28.4471 27.8494 27.7756 27.8494H24.1282C23.4567 27.8494 22.9124 28.3937 22.9124 29.0652V37.7215C22.9124 38.393 23.4567 38.9373 24.1282 38.9373H27.7756Z" fill="white"/>
<path d="M42.933 30.5802C42.769 31.7232 43.2645 32.823 44.2265 33.4502C44.2803 33.4852 45.6526 34.1019 47.0112 34.6029C47.2873 34.7047 48.1799 35.0815 48.0776 35.6544C47.9994 36.0926 47.4526 36.5457 46.6734 36.5457C45.8395 36.5457 45.0382 36.2107 44.5298 35.65C44.079 35.1525 43.3101 35.1145 42.8124 35.5655C42.3149 36.0165 42.2771 36.7852 42.728 37.2829C43.7039 38.3597 45.1418 38.9773 46.6732 38.9773C48.5744 38.9773 50.1717 37.7595 50.4713 36.0819C50.6976 34.8145 50.1284 33.1611 47.8526 32.3216C46.8005 31.9335 45.8194 31.5113 45.4966 31.3701C45.3272 31.2252 45.3243 31.0333 45.3397 30.9256C45.3585 30.795 45.4553 30.475 45.9476 30.3266C47.1096 29.9767 48.1996 30.8295 48.2377 30.8598C48.7516 31.2857 49.5139 31.2174 49.9438 30.7057C50.3758 30.1916 50.3093 29.4247 49.7953 28.9926C49.7108 28.9216 47.6963 27.2603 45.2462 27.9984C43.994 28.3758 43.1075 29.3652 42.933 30.5802Z" fill="white"/>
<path d="M54.888 33.6595L54.878 37.7585C54.8763 38.43 55.4192 38.9757 56.0907 38.9773H56.0938C56.7638 38.9773 57.3078 38.4349 57.3096 37.7644L57.3196 33.6612L59.8914 29.7108C60.2577 29.1481 60.0984 28.3949 59.5357 28.0286C58.973 27.6622 58.2198 27.8214 57.8533 28.3842L56.1032 31.0728L54.3323 28.3607C53.9651 27.7984 53.2116 27.6403 52.6496 28.0073C52.0874 28.3744 51.9292 29.1278 52.2964 29.69L54.888 33.6595Z" fill="white"/>
<path d="M61.7004 54.8994H65.3479C66.0194 54.8994 66.5637 54.355 66.5637 53.6835C66.5637 53.0121 66.0194 52.4677 65.3479 52.4677H62.9163V50.5712H65.079C65.7504 50.5712 66.2948 50.0268 66.2948 49.3554C66.2948 48.6839 65.7504 48.1396 65.079 48.1396H62.9163V46.243H65.3479C66.0194 46.243 66.5637 45.6987 66.5637 45.0272C66.5637 44.3558 66.0194 43.8114 65.3479 43.8114H61.7004C61.029 43.8114 60.4846 44.3558 60.4846 45.0272V53.6835C60.4846 54.355 61.029 54.8994 61.7004 54.8994Z" fill="white"/>
<path d="M51.5938 49.1782C51.6476 49.2132 51.7038 49.2439 51.7624 49.2701C51.8131 49.2926 53.0198 49.8299 54.3785 50.3311C54.6546 50.4329 55.5471 50.8097 55.445 51.3826C55.3669 51.8206 54.8202 52.2738 54.0408 52.2738C53.2069 52.2738 52.4056 51.9391 51.8972 51.3782C51.4464 50.8807 50.6774 50.8427 50.1799 51.2937C49.6823 51.7446 49.6446 52.5134 50.0954 53.0111C51.0713 54.0878 52.5092 54.7055 54.0406 54.7055C55.9419 54.7055 57.5391 53.4877 57.8385 51.81C58.0649 50.5427 57.4958 48.8893 55.22 48.0498C54.1679 47.6617 53.1868 47.2395 52.8641 47.0983C52.6947 46.9534 52.6917 46.7615 52.7071 46.6538C52.7259 46.5232 52.8227 46.2032 53.3152 46.0548C54.4795 45.704 55.5719 46.5616 55.6055 46.5882C56.1194 47.0137 56.8813 46.9455 57.3114 46.4338C57.7434 45.9198 57.6769 45.1529 57.163 44.7208C57.0784 44.6497 55.0644 42.9884 52.6139 43.7265C51.3613 44.1039 50.4747 45.093 50.3003 46.3082C50.1362 47.4512 50.6318 48.551 51.5938 49.1782Z" fill="white"/>
<path d="M39.2864 44.8477V50.859C39.2864 52.2224 39.9363 53.3288 41.2182 54.1477C41.8934 54.5791 42.6548 54.7985 43.4813 54.7994H43.4881C44.1989 54.7994 44.8667 54.6446 45.473 54.3394C47.3867 53.3756 47.7884 51.9113 47.7884 50.8527V44.8475C47.7884 44.1761 47.244 43.6317 46.5725 43.6317C45.9011 43.6317 45.3567 44.1761 45.3567 44.8475V50.8527C45.3567 51.2594 45.2407 51.7338 44.3792 52.1676C44.1108 52.3028 43.8164 52.3649 43.4845 52.3678C43.1232 52.3673 42.8101 52.2793 42.5273 52.0985C41.8534 51.668 41.718 51.305 41.718 50.8589V44.8475C41.718 44.1761 41.1737 43.6317 40.5022 43.6317C39.8306 43.6319 39.2864 44.1762 39.2864 44.8477Z" fill="white"/>
<path d="M21.8288 43.6318H17.0042C16.3327 43.6318 15.7883 44.1762 15.7883 44.8477C15.7883 45.5191 16.3327 46.0635 17.0042 46.0635H18.191V53.5839C18.191 54.2553 18.7353 54.7997 19.4068 54.7997C20.0782 54.7997 20.6226 54.2553 20.6226 53.5839V46.0635H21.8288C22.5003 46.0635 23.0447 45.5191 23.0447 44.8477C23.0447 44.1762 22.5003 43.6318 21.8288 43.6318Z" fill="white"/>
<path d="M29.1024 54.7998C32.1814 54.7998 34.6863 52.2949 34.6863 49.2159C34.6863 46.137 32.1814 43.6321 29.1024 43.6321C26.0235 43.6321 23.5186 46.137 23.5186 49.2159C23.5186 52.2949 26.0235 54.7998 29.1024 54.7998ZM29.1024 46.0636C30.8405 46.0636 32.2546 47.4776 32.2546 49.2158C32.2546 50.9539 30.8405 52.368 29.1024 52.368C27.3643 52.368 25.9502 50.9539 25.9502 49.2158C25.9502 47.4776 27.3643 46.0636 29.1024 46.0636Z" fill="white"/>
<path d="M71.0973 67.8372C70.593 67.3938 69.8248 67.4434 69.3814 67.9478C62.3321 75.9683 52.1698 80.5683 41.5002 80.5683C31.5887 80.5683 22.2703 76.7085 15.262 69.7C8.25354 62.6915 4.39372 53.3732 4.39372 43.4618C4.39372 38.2451 5.4544 33.2012 7.54642 28.4704C9.5676 23.8996 12.4481 19.8397 16.1079 16.4038C16.5975 15.9442 16.6218 15.1748 16.162 14.6853C15.7025 14.1957 14.9329 14.1715 14.4435 14.631C10.5448 18.2912 7.4759 22.6165 5.32228 27.487C3.09247 32.5296 1.96191 37.9042 1.96191 43.4618C1.96191 54.0227 6.07463 63.9518 13.5424 71.4195C21.0103 78.8872 30.9393 82.9999 41.5002 82.9999C52.8688 82.9999 63.6969 78.0987 71.2079 69.5531C71.6513 69.0486 71.6018 68.2804 71.0973 67.8372Z" fill="white"/>
<path d="M70.8756 16.9972C64.4603 9.88057 55.7374 5.35204 46.2767 4.21193C46.0403 1.85015 44.0415 0 41.6186 0H41.3816C38.9592 0 36.9611 1.84918 36.7239 4.20998C30.3326 4.98146 24.1768 7.33091 18.8899 11.0226C18.3394 11.407 18.2047 12.165 18.5892 12.7155C18.8257 13.0542 19.2033 13.2354 19.5872 13.2354C19.8274 13.2354 20.0702 13.1644 20.2823 13.0162C25.1558 9.61309 30.8166 7.42882 36.7001 6.66691V11.4477C29.1688 12.5683 22.2545 16.3337 17.1931 22.0842C11.9936 27.9916 9.13013 35.5837 9.13013 43.4618C9.13013 61.3106 23.6512 75.8317 41.5 75.8317C59.3487 75.8317 73.8698 61.3106 73.8698 43.4618C73.8698 35.5914 71.0113 28.005 65.8209 22.1C60.7592 16.3414 53.8384 12.5695 46.3 11.4477V6.66432C55.0557 7.79568 63.1194 12.0249 69.0694 18.6254C75.2195 25.4478 78.6065 34.2681 78.6065 43.4618C78.6065 50.7222 76.5102 57.7536 72.5444 63.7957C72.1759 64.3571 72.3324 65.1109 72.8937 65.4792C73.0995 65.6143 73.3308 65.6788 73.5597 65.6788C73.9556 65.6788 74.3438 65.4857 74.5772 65.13C78.8041 58.6904 81.0381 51.1975 81.0381 43.4618C81.0383 33.6657 77.4292 24.2671 70.8756 16.9972ZM39.1317 4.68139C39.1317 3.44077 40.141 2.43164 41.3815 2.43164H41.6185C42.8591 2.43164 43.8682 3.44093 43.8682 4.68139V19.3591C43.8682 20.5997 42.8589 21.6089 41.6185 21.6089H41.3815C40.141 21.6089 39.1317 20.5996 39.1317 19.3591V4.68139ZM63.9946 23.7054C68.7946 29.1662 71.4383 36.1825 71.4383 43.4618C71.4383 59.9698 58.008 73.4 41.5001 73.4C24.9922 73.4 11.5619 59.9698 11.5619 43.4618C11.5619 36.1755 14.21 29.1539 19.0186 23.6908C23.6199 18.463 29.8754 15.0079 36.7002 13.9072V19.3594C36.7002 21.9409 38.8004 24.0408 41.3816 24.0408H41.6186C44.2001 24.0408 46.3 21.9407 46.3 19.3594V13.9066C53.1315 15.0084 59.3928 18.4701 63.9946 23.7054Z" fill="white"/>
<path d="M56.2716 60.9022C52.0457 64.2209 46.9649 65.9751 41.5785 65.9751C36.1229 65.9751 30.9907 64.1801 26.7363 60.7842C26.2115 60.3653 25.4465 60.4511 25.0276 60.976C24.6087 61.5007 24.6945 62.2659 25.2194 62.6846C29.9089 66.4281 35.5659 68.4066 41.5785 68.4066C47.5148 68.4066 53.115 66.473 57.7734 62.8145C58.3014 62.3998 58.3935 61.6355 57.9786 61.1073C57.5639 60.5795 56.7996 60.4876 56.2716 60.9022Z" fill="white"/>
</svg>
