<svg id="Layer_2" enable-background="new 0 0 32 32" height="512" viewBox="0 0 32 32" width="512" xmlns="http://www.w3.org/2000/svg"><g><path d="m27.4024 2.16864c-1.55823-1.55823-4.08423-1.55823-5.6424 0l-2.56476 2.5647 8.07166 8.07166 2.5647-2.56476c1.55823-1.55817 1.55823-4.08423 0-5.6424z"/><path d="m2.45203 31c.11615 0 .23224-.0097.34839-.03876l7.95551-1.94525c.26129-.06775.50323-.1936.68713-.38715l13.77209-13.77209-8.07166-8.07159-13.77203 13.77203c-.1936.1839-.3194.42584-.38715.68713l-1.94531 7.95551c-.11615.49359.02905 1.01624.38715 1.37433.27093.28064.64837.42584 1.02588.42584z"/></g></svg>