<svg id="Layer_2" height="512" viewBox="0 0 32 32" width="512" xmlns="http://www.w3.org/2000/svg" data-name="Layer 2"><path d="m22.56378 12.61523-1.64606 1.64606a18.64142 18.64142 0 0 1 5.86414 2.79834l3.02472 2.15021 1.19342-1.66669-3.0144-2.16046a20.78072 20.78072 0 0 0 -5.42182-2.76746z"/><path d="m13.15021 22.02875a5.49207 5.49207 0 0 0 2.84979.79217 5.64644 5.64644 0 0 0 5.63782-5.63781 5.49263 5.49263 0 0 0 -.79212-2.8498z"/><path d="m24.37451 4.98151-6.6358 6.63574q-.66357-.06171-1.32715-.06177c-.144-.01025-.27783-.01025-.41156-.01025a20.60272 20.60272 0 0 0 -11.9856 3.83746l-3.0144 2.16046 1.19342 1.66669 3.02472-2.15021a18.51112 18.51112 0 0 1 5.99786-2.82916 5.47633 5.47633 0 0 0 -.85382 2.95264 5.778 5.778 0 0 0 .22632 1.58435l-6.7901 6.79016 1.46088 1.46087 20.57611-20.57611z"/></svg>