<svg width="144" height="143" viewBox="0 0 144 143" fill="none" xmlns="http://www.w3.org/2000/svg">
<g clip-path="url(#clip0_99_1028)">
<path d="M32.7898 62.2743V64.5808H37.4026V62.2743C37.4026 57.1864 33.2649 53.0486 28.1769 53.0486C23.089 53.0486 18.9512 57.1864 18.9512 62.2743V64.5808H23.564V62.2743C23.564 59.7302 25.6328 57.6614 28.1769 57.6614C30.721 57.6614 32.7898 59.7302 32.7898 62.2743Z" fill="white"/>
<path d="M131.968 0H58.1614C51.8026 0 46.6292 5.17342 46.6292 11.5322H39.7099C32.7674 11.5299 25.8872 9.23719 20.3357 5.07399C19.3277 4.32212 17.9024 4.5112 17.1321 5.50299L11.1281 13.2205C4.27554 22.0335 0.5 33.0308 0.5 44.1962C0.5 48.198 1.54708 52.0682 3.43848 55.56C1.64177 57.2438 0.5 59.6218 0.5 62.2743C0.5 67.3622 4.63778 71.5 9.72573 71.5C9.72573 84.4393 17.9806 95.4573 29.4874 99.6503C19.2006 104.408 12.0322 114.799 12.0322 126.855V143H72V129.161H121.134L138.366 117.675C141.581 115.53 143.5 111.944 143.5 108.078V11.5322C143.5 5.17342 138.327 0 131.968 0ZM107.478 4.61287L105.172 9.22573H84.9577L82.6513 4.61287H107.478ZM46.6289 86.386C45.2288 87.1979 43.6606 87.6453 42.0161 87.6453C36.9281 87.6453 32.7903 83.5075 32.7903 78.4196H46.6289V86.386ZM5.11287 62.2743C5.11287 59.7302 7.18162 57.6614 9.72573 57.6614V66.8871C7.1819 66.8871 5.11287 64.8181 5.11287 62.2743ZM9.72573 50.7418V53.0483C8.94622 53.0483 8.20105 53.1751 7.47935 53.3574C5.95467 50.5413 5.11287 47.4229 5.11287 44.1962C5.11287 34.0547 8.54263 24.0586 14.7701 16.0551L19.4268 10.0675C25.4144 13.9978 32.532 16.1428 39.7096 16.145H46.6289V43.8225H30.4839C27.9398 43.8225 25.871 41.7538 25.871 39.2096C25.871 36.6655 27.9398 34.5968 30.4839 34.5968H35.0968V29.9839H30.4839C26.1364 29.9839 22.5058 33.0146 21.535 37.0694C14.8645 38.0564 9.72573 43.8018 9.72573 50.7418ZM39.7096 96.871C25.7211 96.871 14.3386 85.4886 14.3386 71.5V50.7418C14.3386 46.3111 17.4776 42.607 21.65 41.7214C22.7502 45.5846 26.2721 48.4354 30.4836 48.4354H46.6287V73.8064H28.1775V78.4193C28.1775 86.0514 34.384 92.2579 42.0161 92.2579C43.6123 92.2579 45.1621 91.9741 46.6289 91.4552V97.2651C45.1043 97.03 43.5659 96.8708 42.0161 96.8708L39.7096 96.871ZM16.645 138.387V126.855C16.645 112.866 28.0275 101.484 42.0161 101.484C43.5707 101.484 45.109 101.675 46.6289 101.952V108.078C46.6289 111.944 48.548 115.528 51.7655 117.673L67.3871 128.089V138.387H16.645V138.387ZM60.4678 96.871V23.0646H129.661L129.666 96.871H60.4678ZM118.129 101.484V124.549H72V101.484H118.129ZM138.887 108.078C138.887 110.396 137.736 112.548 135.806 113.835L122.742 122.547V101.484H129.661C132.205 101.484 134.274 99.4152 134.274 96.871V23.0646C134.274 20.5205 132.205 18.4517 129.661 18.4517H60.4678C57.9237 18.4517 55.855 20.5205 55.855 23.0646V96.871C55.855 99.4152 57.9237 101.484 60.4678 101.484H67.3871V122.547L54.3233 113.837C52.3928 112.55 51.2418 110.396 51.2418 108.078V11.5322C51.2418 7.71725 54.3462 4.61287 58.1611 4.61287H77.4938L82.1066 13.8386H108.022L112.635 4.61287H131.968C135.782 4.61287 138.887 7.71725 138.887 11.5322V108.078H138.887Z" fill="white"/>
<path d="M58.1619 13.8387C59.4357 13.8387 60.4683 12.8061 60.4683 11.5323C60.4683 10.2585 59.4357 9.22583 58.1619 9.22583C56.8881 9.22583 55.8555 10.2585 55.8555 11.5323C55.8555 12.8061 56.8881 13.8387 58.1619 13.8387Z" fill="white"/>
<path d="M67.3865 13.8387C68.6603 13.8387 69.6929 12.8061 69.6929 11.5323C69.6929 10.2585 68.6603 9.22583 67.3865 9.22583C66.1127 9.22583 65.0801 10.2585 65.0801 11.5323C65.0801 12.8061 66.1127 13.8387 67.3865 13.8387Z" fill="white"/>
<path d="M81.2262 119.935H108.904C111.448 119.935 113.516 117.867 113.516 115.322V110.71C113.516 108.165 111.448 106.097 108.904 106.097H81.2262C78.682 106.097 76.6133 108.165 76.6133 110.71V115.322C76.6133 117.867 78.6823 119.935 81.2262 119.935ZM81.2262 110.71H108.904L108.908 115.322H81.2264L81.2262 110.71Z" fill="white"/>
<path d="M69.6929 32.2904H78.9187V27.6775H65.0801V41.5161H69.6929V32.2904Z" fill="white"/>
<path d="M69.6929 78.4192H65.0801V92.2581H78.9187V87.6449H69.6929V78.4192Z" fill="white"/>
<path d="M111.209 32.2904H120.435V41.5161H125.048V27.6775H111.209V32.2904Z" fill="white"/>
<path d="M120.435 87.6449H111.209V92.2581H125.048V78.4192H120.435V87.6449Z" fill="white"/>
<path d="M113.516 73.8063C117.331 73.8063 120.435 70.702 120.435 66.887C120.435 64.8619 119.544 63.0559 118.154 61.7899C119.628 58.9299 120.435 55.7839 120.435 52.5365C120.435 41.3733 111.354 32.2905 100.189 32.2905H99.2801C95.742 32.2905 92.2779 30.8558 89.7754 28.3533L88.53 27.1079L81.869 30.9136C74.3568 35.2058 69.6934 43.2462 69.6934 51.8955C69.6934 55.3599 70.4036 58.8196 71.6884 62.0393C70.4567 63.2872 69.6934 64.9984 69.6934 66.8873C69.6934 70.7022 72.7977 73.8066 76.6127 73.8066H78.9191C78.9191 81.4387 85.1256 87.6452 92.7577 87.6452H97.3706C105.003 87.6452 111.209 81.4387 111.209 73.8066H113.516V73.8063ZM113.516 69.1935H111.209V64.5806H113.516C114.789 64.5806 115.822 65.614 115.822 66.887C115.822 68.1601 114.789 69.1935 113.516 69.1935ZM76.6124 69.1935C75.3393 69.1935 74.3059 68.1601 74.3059 66.887C74.3059 65.614 75.3393 64.5806 76.6124 64.5806H78.9188V69.1935H76.6124ZM106.596 73.8063C106.596 78.8943 102.459 83.0321 97.3706 83.0321H92.7577C87.6697 83.0321 83.532 78.8943 83.532 73.8063V62.2742C83.532 59.0891 85.6954 56.3972 88.6316 55.597C89.6488 58.1548 92.1491 59.9677 95.0644 59.9677H104.29C105.563 59.9677 106.597 61.0011 106.597 62.2742V73.8063H106.596ZM104.29 55.3549H95.0641C93.7911 55.3549 92.7577 54.3215 92.7577 53.0484C92.7577 51.7754 93.7911 50.742 95.0641 50.742H97.3706V46.1291H95.0641C91.9944 46.1291 89.3857 48.1381 88.4814 50.9104C83.8132 51.7176 80.1136 55.3482 79.1679 59.9677H76.6124C76.3496 59.9677 76.1027 60.0161 75.8465 60.0462C74.8525 57.4468 74.3059 54.6723 74.3059 51.8952C74.3059 44.8974 78.0815 38.3932 84.1568 34.9198L87.8401 32.8165C91.0462 35.4321 95.1239 36.9034 99.2801 36.9034H100.189C108.808 36.9034 115.822 43.9174 115.822 52.5365C115.822 55.168 115.13 57.7121 113.878 60.0049C113.755 59.9979 113.64 59.968 113.515 59.968H110.784C109.83 57.2898 107.293 55.3549 104.29 55.3549Z" fill="white"/>
</g>
<defs>
<clipPath id="clip0_99_1028">
<rect width="143" height="143" fill="white" transform="translate(0.5)"/>
</clipPath>
</defs>
</svg>
