<svg width="83" height="83" viewBox="0 0 83 83" fill="none" xmlns="http://www.w3.org/2000/svg">
<g clip-path="url(#clip0_107_1021)">
<path d="M18.7419 36.1452V37.4839H21.4193V36.1452C21.4193 33.1921 19.0177 30.7904 16.0645 30.7904C13.1114 30.7904 10.7097 33.1921 10.7097 36.1452V37.4839H13.3871V36.1452C13.3871 34.6685 14.5879 33.4678 16.0645 33.4678C17.5412 33.4678 18.7419 34.6685 18.7419 36.1452Z" fill="white"/>
<path d="M76.3065 0H33.4678C29.7771 0 26.7743 3.00275 26.7743 6.6935H22.7582C18.7287 6.6922 14.7353 5.36144 11.513 2.94504C10.928 2.50864 10.1007 2.61839 9.65361 3.19404L6.16875 7.67345C2.19139 12.7886 0 19.1717 0 25.6523C0 27.9751 0.607748 30.2214 1.70555 32.2481C0.662703 33.2254 0 34.6057 0 36.1452C0 39.0984 2.40165 41.5 5.3548 41.5C5.3548 49.0102 10.1461 55.4053 16.8248 57.839C10.8542 60.6007 6.6935 66.6317 6.6935 73.6291V83H41.5V74.9678H70.0186L80.0201 68.3011C81.8863 67.0561 83 64.9744 83 62.7307V6.6935C83 3.00275 79.9972 0 76.3065 0ZM62.0921 2.6774L60.7534 5.3548H49.0209L47.6822 2.6774H62.0921ZM26.7741 50.1401C25.9615 50.6114 25.0512 50.8711 24.0967 50.8711C21.1436 50.8711 18.742 48.4694 18.742 45.5163H26.7741V50.1401ZM2.6774 36.1452C2.6774 34.6685 3.87814 33.4678 5.3548 33.4678V38.8226C3.8783 38.8226 2.6774 37.6217 2.6774 36.1452ZM5.3548 29.4515V30.7902C4.90235 30.7902 4.46984 30.8638 4.05095 30.9697C3.166 29.3352 2.6774 27.5252 2.6774 25.6523C2.6774 19.766 4.6681 13.9641 8.28265 9.3187L10.9855 5.84339C14.4608 8.1246 18.592 9.3696 22.758 9.37089H26.7741V25.4354H17.4033C15.9266 25.4354 14.7259 24.2347 14.7259 22.758C14.7259 21.2814 15.9266 20.0807 17.4033 20.0807H20.0807V17.4033H17.4033C14.8799 17.4033 12.7726 19.1623 12.2091 21.5158C8.33745 22.0887 5.3548 25.4235 5.3548 29.4515ZM22.758 56.2259C14.6388 56.2259 8.0322 49.6192 8.0322 41.5V29.4515C8.0322 26.8798 9.85414 24.7299 12.2759 24.2159C12.9144 26.4582 14.9586 28.1128 17.4031 28.1128H26.774V42.8387H16.0646V45.5161C16.0646 49.9459 19.6669 53.5483 24.0967 53.5483C25.0232 53.5483 25.9227 53.3836 26.7741 53.0824V56.4546C25.8892 56.3181 24.9963 56.2257 24.0967 56.2257L22.758 56.2259ZM9.37089 80.3226V73.6291C9.37089 65.5099 15.9775 58.9033 24.0967 58.9033C24.9991 58.9033 25.8919 59.0143 26.7741 59.1749V62.7305C26.7741 64.9742 27.888 67.0546 29.7555 68.2996L38.8226 74.3451V80.3224H9.37089V80.3226ZM34.8065 56.2259V13.3872H74.9678L74.9706 56.2259H34.8065ZM68.2741 58.9033V72.2904H41.5V58.9033H68.2741ZM80.3226 62.7307C80.3226 64.076 79.6545 65.3251 78.534 66.0721L70.9515 71.1284V58.9033H74.9676C76.4443 58.9033 77.645 57.7025 77.645 56.2259V13.3872C77.645 11.9105 76.4443 10.7098 74.9676 10.7098H34.8065C33.3298 10.7098 32.1291 11.9105 32.1291 13.3872V56.2259C32.1291 57.7025 33.3298 58.9033 34.8065 58.9033H38.8226V71.1284L31.2401 66.0735C30.1196 65.3265 29.4515 64.0762 29.4515 62.7308V6.6935C29.4515 4.47924 31.2534 2.6774 33.4676 2.6774H44.6887L47.3661 8.0322H62.4079L65.0853 2.6774H76.3063C78.5206 2.6774 80.3224 4.47924 80.3224 6.6935V62.7307H80.3226Z" fill="white"/>
<path d="M33.4678 8.0322C34.2072 8.0322 34.8065 7.43284 34.8065 6.6935C34.8065 5.95415 34.2072 5.3548 33.4678 5.3548C32.7285 5.3548 32.1292 5.95415 32.1292 6.6935C32.1292 7.43284 32.7285 8.0322 33.4678 8.0322Z" fill="white"/>
<path d="M38.8226 8.0322C39.5619 8.0322 40.1613 7.43284 40.1613 6.6935C40.1613 5.95415 39.5619 5.3548 38.8226 5.3548C38.0832 5.3548 37.4839 5.95415 37.4839 6.6935C37.4839 7.43284 38.0832 8.0322 38.8226 8.0322Z" fill="white"/>
<path d="M46.8549 69.6128H62.9194C64.3961 69.6128 65.5968 68.4121 65.5968 66.9354V64.258C65.5968 62.7814 64.3961 61.5806 62.9194 61.5806H46.8549C45.3782 61.5806 44.1775 62.7814 44.1775 64.258V66.9354C44.1775 68.4121 45.3784 69.6128 46.8549 69.6128ZM46.8549 64.258H62.9194L62.9222 66.9354H46.8551L46.8549 64.258Z" fill="white"/>
<path d="M40.1613 18.742H45.5161V16.0646H37.4839V24.0968H40.1613V18.742Z" fill="white"/>
<path d="M40.1613 45.5161H37.4839V53.5485H45.5161V50.8709H40.1613V45.5161Z" fill="white"/>
<path d="M64.2581 18.742H69.6129V24.0968H72.2903V16.0646H64.2581V18.742Z" fill="white"/>
<path d="M69.6129 50.8709H64.2581V53.5485H72.2903V45.5161H69.6129V50.8709Z" fill="white"/>
<path d="M65.5967 42.8387C67.8109 42.8387 69.6128 41.0368 69.6128 38.8226C69.6128 37.6471 69.096 36.5989 68.2888 35.8641C69.1443 34.2041 69.6128 32.3781 69.6128 30.4933C69.6128 24.0139 64.3423 18.7421 57.8616 18.7421H57.3341C55.2805 18.7421 53.2699 17.9094 51.8174 16.4569L51.0945 15.734L47.2284 17.9429C42.8681 20.4342 40.1614 25.101 40.1614 30.1212C40.1614 32.132 40.5736 34.1401 41.3193 36.0089C40.6044 36.7332 40.1614 37.7264 40.1614 38.8228C40.1614 41.037 41.9632 42.8389 44.1775 42.8389H45.5162C45.5162 47.2687 49.1186 50.8711 53.5484 50.8711H56.2258C60.6556 50.8711 64.258 47.2687 64.258 42.8389H65.5967V42.8387ZM65.5967 40.1613H64.258V37.4839H65.5967C66.3356 37.4839 66.9354 38.0837 66.9354 38.8226C66.9354 39.5615 66.3357 40.1613 65.5967 40.1613ZM44.1773 40.1613C43.4384 40.1613 42.8386 39.5615 42.8386 38.8226C42.8386 38.0837 43.4384 37.4839 44.1773 37.4839H45.516V40.1613H44.1773ZM61.5806 42.8387C61.5806 45.7918 59.1789 48.1935 56.2258 48.1935H53.5484C50.5952 48.1935 48.1936 45.7918 48.1936 42.8387V36.1452C48.1936 34.2965 49.4493 32.7341 51.1535 32.2697C51.7439 33.7542 53.1951 34.8065 54.8872 34.8065H60.242C60.9809 34.8065 61.5807 35.4063 61.5807 36.1452V42.8387H61.5806ZM60.2419 32.1291H54.8871C54.1482 32.1291 53.5484 31.5293 53.5484 30.7904C53.5484 30.0515 54.1482 29.4517 54.8871 29.4517H56.2258V26.7743H54.8871C53.1053 26.7743 51.5912 27.9404 51.0663 29.5495C48.3568 30.018 46.2095 32.1252 45.6606 34.8065H44.1773C44.0248 34.8065 43.8815 34.8345 43.7328 34.8521C43.1559 33.3433 42.8386 31.7329 42.8386 30.1211C42.8386 26.0594 45.03 22.2842 48.5562 20.2682L50.6941 19.0474C52.555 20.5655 54.9218 21.4195 57.3341 21.4195H57.8616C62.8643 21.4195 66.9354 25.4906 66.9354 30.4933C66.9354 32.0207 66.5338 33.4973 65.8068 34.8281C65.7358 34.824 65.6688 34.8067 65.5965 34.8067H64.0114C63.4575 33.2522 61.9849 32.1291 60.2419 32.1291Z" fill="white"/>
</g>
<defs>
<clipPath id="clip0_107_1021">
<rect width="83" height="83" fill="white"/>
</clipPath>
</defs>
</svg>
