<?xml version="1.0" standalone="no"?>
<!DOCTYPE svg PUBLIC "-//W3C//DTD SVG 20010904//EN" "http://www.w3.org/TR/2001/REC-SVG-20010904/DTD/svg10.dtd">
<svg version="1.0" xmlns="http://www.w3.org/2000/svg"
 width="360.000000pt" height="360.000000pt" viewBox="0 0 360.000000 360.000000" preserveAspectRatio="none">

<g transform="translate(0.000000,360.000000) scale(0.100000,-0.100000)"
fill="#000000" stroke="none">
<path d="M300 3000 l0 -300 43 0 42 0 0 257 0 258 258 0 257 0 0 43 0 42 -300
0 -300 0 0 -300z"/>
<path d="M2700 3258 l0 -43 260 3 260 3 0 -261 0 -260 40 0 40 0 0 300 0 300
-300 0 -300 0 0 -42z"/>
<path d="M300 600 l0 -300 300 0 300 0 0 43 0 42 -257 0 -258 0 0 258 0 257
-42 0 -43 0 0 -300z"/>
<path d="M3220 640 l0 -261 -260 3 -260 3 0 -42 0 -43 300 0 300 0 0 300 0
300 -40 0 -40 0 0 -260z"/>
</g>
</svg>
