<svg width="82" height="83" viewBox="0 0 82 83" fill="none" xmlns="http://www.w3.org/2000/svg">
<path d="M46.8564 65.9544C46.1586 65.9544 45.5063 65.4878 45.254 64.7349L29.9029 18.932C29.5801 17.9692 30.037 16.9102 30.9234 16.5596C31.803 16.214 32.7826 16.7053 33.1077 17.6656L48.4565 63.4685C48.7793 64.4312 48.3224 65.4903 47.4383 65.8408C47.2473 65.9174 47.0496 65.9544 46.8564 65.9544Z" fill="white"/>
<path d="M29.8985 36.6072C29.203 36.6072 28.5484 36.1407 28.2984 35.3877L23.6162 21.4202C23.2912 20.4599 23.7503 19.4009 24.6345 19.0479C25.5163 18.7023 26.496 19.1935 26.8187 20.1563L31.5009 34.1238C31.8259 35.0841 31.3668 36.1431 30.4826 36.4961C30.2894 36.5702 30.094 36.6072 29.8985 36.6072Z" fill="white"/>
<path d="M40.5674 68.438C39.8719 68.438 39.2173 67.9714 38.9673 67.2185L31.6236 45.2995C31.2985 44.3392 31.7577 43.2777 32.6395 42.9272C33.5237 42.5816 34.5033 43.0728 34.8238 44.0331L42.1698 65.9545C42.4948 66.9148 42.0357 67.9739 41.1515 68.3269C40.9561 68.4009 40.7629 68.438 40.5674 68.438Z" fill="white"/>
<path d="M22.5978 34.2993C22.2228 33.176 21.5432 32.2429 20.7067 31.5295C20.934 30.3643 20.8727 29.1522 20.4863 28.0043C19.9453 26.3873 18.8566 25.0962 17.4224 24.368C15.9837 23.6397 14.3744 23.5657 12.888 24.1557C11.4015 24.7432 10.2105 25.9257 9.54226 27.4834C8.87403 29.0436 8.80357 30.7913 9.34452 32.4058C9.71728 33.5241 10.3923 34.4844 11.2356 35.2176C11.0219 36.3458 11.0674 37.5406 11.4538 38.7033C12.3038 41.2361 14.5426 42.9419 17.0224 42.9419C17.7156 42.9419 18.3975 42.8086 19.0521 42.5519C20.5408 41.9644 21.7295 40.7819 22.4 39.2217C23.0705 37.6615 23.141 35.9138 22.5978 34.2993ZM12.5493 31.1444C12.3197 30.4556 12.3493 29.7126 12.6334 29.051C12.9175 28.3894 13.4244 27.8858 14.0562 27.6364C14.6858 27.3871 15.37 27.4167 15.9814 27.7253C16.5951 28.0339 17.0565 28.5844 17.2838 29.2682C17.3747 29.5422 17.3951 29.8286 17.4065 30.11C16.6019 30.0409 15.7859 30.1372 14.9995 30.4507C14.2062 30.7642 13.5198 31.2456 12.9471 31.8405C12.7948 31.6233 12.6379 31.4085 12.5493 31.1444ZM19.3112 37.6566C19.0271 38.3182 18.5202 38.8193 17.8906 39.0687C16.6042 39.5698 15.1222 38.8119 14.6608 37.4344C14.1858 36.0174 14.8608 34.4425 16.1655 33.929C16.4428 33.8179 16.7337 33.7611 17.0246 33.7611C18.0815 33.7611 19.0339 34.4869 19.3953 35.5632C19.6271 36.252 19.5953 36.995 19.3112 37.6566Z" fill="white"/>
<path d="M24.8184 75.0142C24.1229 75.0142 23.4683 74.5477 23.2183 73.7947L16.2859 53.1126C15.9632 52.1498 16.4223 51.0908 17.3042 50.7402C18.1884 50.3922 19.1657 50.8859 19.4885 51.8462L26.4185 72.5283C26.7435 73.4911 26.2844 74.5501 25.4025 74.9007C25.2093 74.9772 25.0116 75.0142 24.8184 75.0142Z" fill="white"/>
<path d="M25.38 57.9905C24.6844 57.9905 24.0299 57.5239 23.7798 56.771L21.8206 50.9277C21.4978 49.9674 21.9547 48.9059 22.8411 48.5554C23.7207 48.2073 24.7004 48.701 25.0254 49.6613L26.9823 55.507C27.3074 56.4673 26.8482 57.5264 25.9641 57.8794C25.7709 57.9534 25.5754 57.9905 25.38 57.9905Z" fill="white"/>
<path d="M30.3506 72.8245C29.655 72.8245 29.0005 72.3579 28.7504 71.605L25.6638 62.397C25.3388 61.4343 25.7979 60.3727 26.6798 60.0222C27.5617 59.6717 28.5413 60.1703 28.8641 61.1281L31.9529 70.3361C32.278 71.2989 31.8188 72.3604 30.937 72.7109C30.7415 72.7875 30.546 72.8245 30.3506 72.8245Z" fill="white"/>
<path d="M22.3751 83.0003C20.2272 83.0003 18.2929 81.534 17.5611 79.3492L0.309775 27.8685C-0.156168 26.4786 -0.0948003 24.9703 0.482515 23.62C1.05983 22.2746 2.08491 21.2526 3.36455 20.7465L34.4146 8.47495C36.9989 7.45047 40.0355 9.00323 40.9719 11.7928L58.2232 63.276C58.6891 64.6658 58.6278 66.1742 58.0504 67.522C57.4731 68.8699 56.448 69.8895 55.1684 70.3955L24.1161 82.6695C23.5547 82.8892 22.9683 83.0003 22.3751 83.0003ZM36.1556 11.8397C35.9579 11.8397 35.767 11.8767 35.5806 11.9483L4.53054 24.2248C4.10324 24.3927 3.76458 24.7309 3.57138 25.1851C3.37591 25.6344 3.35546 26.138 3.51001 26.5971L20.7636 78.0804C21.075 79.0061 22.0864 79.5319 22.9501 79.1863L54.0001 66.9123C54.4274 66.7444 54.7684 66.4038 54.9593 65.952C55.1548 65.5002 55.1775 64.9966 55.0207 64.5375L37.7648 13.0592C37.5216 12.3309 36.8761 11.8397 36.1556 11.8397Z" fill="white"/>
<path d="M76.8836 6.10352e-05H43.8425C41.0241 6.10352e-05 38.7285 2.49091 38.7285 5.55447V6.24322C40.0877 6.80854 41.281 7.77377 42.1379 9.0303V5.55447C42.1379 4.53246 42.9016 3.703 43.8425 3.703H62.8917V62.1922H60.2779L60.3574 62.4292C60.737 63.5573 60.8483 64.7349 60.7483 65.8951H76.8859C79.7088 65.8951 81.9999 63.4018 81.9999 60.3407V5.55447C81.9977 2.49091 79.7066 6.10352e-05 76.8836 6.10352e-05ZM71.5264 62.1947H66.301V3.703H71.5264V62.1947ZM78.5883 60.3432C78.5883 61.3652 77.8246 62.1947 76.8836 62.1947H74.9358V3.703H76.8836C77.8246 3.703 78.5883 4.53246 78.5883 5.55447V60.3432Z" fill="white"/>
</svg>
