<svg width="176" height="176" viewBox="0 0 176 176" fill="none" xmlns="http://www.w3.org/2000/svg">
<g clip-path="url(#clip0_176_40947)">
<path d="M65.5975 96.1862C62.9508 93.032 58.2492 92.6206 55.0949 95.2673C51.9407 97.9141 51.5294 102.616 54.1761 105.77L70.149 124.806C83.3809 140.575 106.893 142.632 122.662 129.4C138.431 116.168 140.488 92.6562 127.256 76.887L116.075 63.562C113.428 60.4078 108.727 59.9965 105.573 62.6432C102.418 65.2899 102.007 69.9915 104.654 73.1458L101.459 69.3386C98.8124 66.1844 94.1108 65.7731 90.9565 68.4198C87.8023 71.0665 87.391 75.7681 90.0377 78.9223L86.8431 75.1152C84.1964 71.961 79.4948 71.5496 76.3405 74.1963C73.1863 76.843 72.775 81.5447 75.4217 84.6989L51.4624 56.1453C48.8157 52.9911 44.114 52.5798 40.9598 55.2265C37.8056 57.8732 37.3942 62.5748 40.0409 65.729L79.9731 113.318L65.5975 96.1862V96.1862Z" stroke="#021B79" stroke-width="4" stroke-miterlimit="10" stroke-linecap="round" stroke-linejoin="round"/>
</g>
<defs>
<clipPath id="clip0_176_40947">
<rect width="124.247" height="124.247" fill="white" transform="translate(0 79.8643) rotate(-40)"/>
</clipPath>
</defs>
</svg>
