<svg width="288" height="288" viewBox="0 0 288 288" fill="none" xmlns="http://www.w3.org/2000/svg">
<g clip-path="url(#clip0_176_40948)">
<path d="M108.477 157.776C104.138 152.605 96.4312 151.931 91.2606 156.27C86.09 160.608 85.4157 168.315 89.7543 173.486L115.938 204.691C137.629 230.541 176.171 233.913 202.021 212.222C227.871 190.531 231.243 151.989 209.552 126.139L191.223 104.296C186.885 99.1254 179.177 98.4511 174.007 102.79C168.836 107.128 168.162 114.836 172.501 120.006L167.264 113.765C162.925 108.595 155.218 107.921 150.047 112.259C144.877 116.598 144.202 124.305 148.541 129.476L143.304 123.235C138.966 118.064 131.258 117.39 126.088 121.729C120.917 126.067 120.243 133.774 124.582 138.945L85.3058 92.1381C80.9672 86.9675 73.2599 86.2932 68.0893 90.6318C62.9187 94.9705 62.2444 102.678 66.583 107.848L132.043 185.86L108.477 157.776V157.776Z" stroke="white" stroke-width="4" stroke-miterlimit="10" stroke-linecap="round" stroke-linejoin="round"/>
</g>
<defs>
<clipPath id="clip0_176_40948">
<rect width="203.674" height="203.674" fill="white" transform="translate(0.945312 131.02) rotate(-40)"/>
</clipPath>
</defs>
</svg>
