<svg width="1080" height="1043" viewBox="0 0 1080 1043" fill="none" xmlns="http://www.w3.org/2000/svg">
<g style="mix-blend-mode:overlay" opacity="0.3">
<path d="M-1456.88 131.294C-566.747 -496.101 -452.358 2618.22 1400.86 1" stroke="black" stroke-width="0.9758" stroke-miterlimit="10" stroke-linecap="round" stroke-linejoin="round"/>
<path d="M-1451.9 176.844C-533.66 -536.588 -396.847 2590.48 1410.96 59.6499" stroke="black" stroke-width="0.9516" stroke-miterlimit="10" stroke-linecap="round" stroke-linejoin="round"/>
<path d="M-1449.63 220.393C-503.288 -578.722 -343.767 2561.09 1418.62 115.945" stroke="black" stroke-width="0.9274" stroke-miterlimit="10" stroke-linecap="round" stroke-linejoin="round"/>
<path d="M-1447.35 264.297C-473.201 -620.501 -290.688 2532.06 1426 172.949" stroke="black" stroke-width="0.9032" stroke-miterlimit="10" stroke-linecap="round" stroke-linejoin="round"/>
<path d="M-1445.37 307.847C-443.112 -662.988 -238.177 2502.67 1433.1 229.599" stroke="black" stroke-width="0.879" stroke-miterlimit="10" stroke-linecap="round" stroke-linejoin="round"/>
<path d="M-1443.1 351.396C-412.741 -705.122 -185.098 2473.28 1440.76 286.249" stroke="black" stroke-width="0.8548" stroke-miterlimit="10" stroke-linecap="round" stroke-linejoin="round"/>
<path d="M-1440.83 395.299C-382.37 -747.255 -132.019 2444.25 1448.14 343.253" stroke="black" stroke-width="0.8306" stroke-miterlimit="10" stroke-linecap="round" stroke-linejoin="round"/>
<path d="M-1438.84 438.849C-352.567 -789.388 -79.5084 2414.86 1455.24 399.548" stroke="black" stroke-width="0.8065" stroke-miterlimit="10" stroke-linecap="round" stroke-linejoin="round"/>
<path d="M-1410 482.398C-295.627 -831.521 0.139179 2385.48 1489.47 456.198" stroke="black" stroke-width="0.7823" stroke-miterlimit="10" stroke-linecap="round" stroke-linejoin="round"/>
<path d="M-1434.3 525.948C-291.825 -874.009 26.6489 2355.73 1470.28 512.847" stroke="black" stroke-width="0.7581" stroke-miterlimit="10" stroke-linecap="round" stroke-linejoin="round"/>
<path d="M-1432.31 569.851C-262.021 -915.788 79.1595 2326.7 1477.38 569.851" stroke="black" stroke-width="0.7339" stroke-miterlimit="10" stroke-linecap="round" stroke-linejoin="round"/>
<path d="M-1403.47 613.401C-205.081 -957.921 158.807 2297.31 1511.61 626.501" stroke="black" stroke-width="0.7097" stroke-miterlimit="10" stroke-linecap="round" stroke-linejoin="round"/>
<path d="M-1427.77 656.95C-201.278 -1000.41 185.318 2267.93 1492.42 683.151" stroke="black" stroke-width="0.6855" stroke-miterlimit="10" stroke-linecap="round" stroke-linejoin="round"/>
<path d="M-1425.78 700.854C-171.475 -1042.19 237.829 2238.89 1499.52 739.8" stroke="black" stroke-width="0.6613" stroke-miterlimit="10" stroke-linecap="round" stroke-linejoin="round"/>
<path d="M-1423.51 744.403C-141.103 -1084.32 290.909 2209.51 1507.18 796.45" stroke="black" stroke-width="0.6371" stroke-miterlimit="10" stroke-linecap="round" stroke-linejoin="round"/>
<path d="M-1394.67 787.953C-84.4472 -1126.81 370.271 2180.12 1541.13 853.1" stroke="black" stroke-width="0.6129" stroke-miterlimit="10" stroke-linecap="round" stroke-linejoin="round"/>
<path d="M-1419.25 831.502C-80.9281 -1168.94 396.498 2150.38 1521.66 909.75" stroke="black" stroke-width="0.5887" stroke-miterlimit="10" stroke-linecap="round" stroke-linejoin="round"/>
<path d="M-1416.98 875.406C-50.556 -1211.07 449.578 2121.35 1529.32 966.754" stroke="black" stroke-width="0.5645" stroke-miterlimit="10" stroke-linecap="round" stroke-linejoin="round"/>
<path d="M-1414.71 918.955C-20.1837 -1253.21 502.658 2091.96 1536.7 1023.05" stroke="black" stroke-width="0.5403" stroke-miterlimit="10" stroke-linecap="round" stroke-linejoin="round"/>
<path d="M-1412.72 962.505C9.90379 -1295.34 555.453 2062.57 1544.08 1079.7" stroke="black" stroke-width="0.5161" stroke-miterlimit="10" stroke-linecap="round" stroke-linejoin="round"/>
<path d="M-1410.45 1006.41C39.9911 -1337.47 608.248 2033.54 1551.46 1136.7" stroke="black" stroke-width="0.4919" stroke-miterlimit="10" stroke-linecap="round" stroke-linejoin="round"/>
<path d="M-1408.18 1049.96C70.362 -1379.61 661.326 2004.15 1558.84 1193.35" stroke="black" stroke-width="0.4677" stroke-miterlimit="10" stroke-linecap="round" stroke-linejoin="round"/>
<path d="M-1406.2 1093.51C100.45 -1421.74 714.122 1974.77 1565.94 1250" stroke="black" stroke-width="0.4435" stroke-miterlimit="10" stroke-linecap="round" stroke-linejoin="round"/>
<path d="M-1403.93 1137.06C130.536 -1464.23 766.915 1945.02 1573.6 1306.3" stroke="black" stroke-width="0.4194" stroke-miterlimit="10" stroke-linecap="round" stroke-linejoin="round"/>
<path d="M-1401.66 1180.96C160.909 -1506.01 819.995 1915.99 1580.98 1363.3" stroke="black" stroke-width="0.3952" stroke-miterlimit="10" stroke-linecap="round" stroke-linejoin="round"/>
<path d="M-1399.67 1224.51C190.995 -1548.14 872.789 1886.6 1588.36 1419.95" stroke="black" stroke-width="0.371" stroke-miterlimit="10" stroke-linecap="round" stroke-linejoin="round"/>
<path d="M-1397.4 1268.06C221.082 -1590.63 925.584 1857.22 1595.74 1476.6" stroke="black" stroke-width="0.3468" stroke-miterlimit="10" stroke-linecap="round" stroke-linejoin="round"/>
<path d="M-1395.13 1311.96C251.454 -1632.41 978.664 1828.18 1603.12 1533.61" stroke="black" stroke-width="0.3226" stroke-miterlimit="10" stroke-linecap="round" stroke-linejoin="round"/>
<path d="M-1393.14 1355.51C281.542 -1674.89 1031.46 1798.8 1610.22 1589.9" stroke="black" stroke-width="0.2984" stroke-miterlimit="10" stroke-linecap="round" stroke-linejoin="round"/>
<path d="M-1390.87 1399.06C311.629 -1717.03 1084.25 1769.41 1617.88 1646.55" stroke="black" stroke-width="0.2742" stroke-miterlimit="10" stroke-linecap="round" stroke-linejoin="round"/>
<path d="M-1388.6 1442.61C342.001 -1759.16 1137.33 1740.02 1625.26 1703.2" stroke="black" stroke-width="0.25" stroke-miterlimit="10" stroke-linecap="round" stroke-linejoin="round"/>
</g>
</svg>
