<svg class="overlay-mask" width="100%" height="100%" viewBox="0 0 855 855" preserveAspectRatio="xMidYMid meet" xmlns="http://www.w3.org/2000/svg">
  <defs>
    <mask id="frameMask">
      <!-- ทั้งจอ: ขาว = มองเห็น, ดำ = เจาะรู -->
      <rect width="100%" height="100%" fill="white" />
      <!-- รูตรงกลาง: สีดำ (จะโปร่งใส) -->
      <path 
        d="M334.765 496.948L334.337 496.511C309.508 471.129 289.862 435.652 278.245 394.046L278.102 393.531L277.664 393.223L276.959 392.718C262.228 382.018 252.572 364.36 252.572 344.334C252.572 329.897 257.819 316.819 266.156 306.552L266.492 306.138V220.88C266.492 177.452 279.306 141.055 305.407 115.512C331.51 89.9668 371.103 75.0814 425.049 75.0813C480.438 75.0813 520.006 89.9723 545.729 115.505C571.451 141.038 583.546 177.43 583.546 220.88V306.109L583.883 306.523C592.264 316.819 597.496 329.897 597.496 344.334C597.496 364.692 587.503 382.609 572.375 393.238L571.937 393.545L571.793 394.061C560.176 435.667 540.545 471.129 515.73 496.511L515.304 496.948V535.627L515.371 535.845C516.878 540.675 520.383 545.724 525.43 550.924C530.493 556.141 537.2 561.602 545.255 567.246C561.365 578.535 583.003 590.646 608.011 603.062C658.035 627.898 721.719 654.043 782.039 677.355L782.042 677.356C791.735 681.079 798.167 690.543 798.167 701.126V795.731C798.167 809.779 786.933 821.166 773.124 821.166H76.9443C63.1352 821.166 51.9014 809.779 51.9014 795.731V701.112C51.9014 690.548 58.3291 681.109 68.0283 677.339L68.0293 677.34C128.349 654.021 192.041 627.868 242.068 603.03C267.078 590.612 288.718 578.502 304.826 567.216C312.88 561.574 319.586 556.114 324.646 550.9C329.691 545.702 333.194 540.656 334.697 535.829L334.765 535.612V496.948Z"
        fill="black" />
    </mask>
  </defs>
  <!-- Overlay ดำทึบใช้ mask -->
  <rect width="100%" height="100%" fill="rgba(0, 0, 0, 0.7)" mask="url(#frameMask)" />
</svg>
