<svg width="855" height="1396" viewBox="0 0 855 1396" fill="none" xmlns="http://www.w3.org/2000/svg">
<g clip-path="url(#clip0_563_144)">
<mask id="mask0_563_144" style="mask-type:luminance" maskUnits="userSpaceOnUse" x="0" y="0" width="855" height="1396">
<path d="M855 0H0V1396H855V0Z" fill="white"/>
<path d="M334.765 1037.95L334.337 1037.51C309.508 1012.13 289.862 976.652 278.245 935.046L278.102 934.531L277.664 934.223L276.959 933.718C262.228 923.018 252.572 905.36 252.572 885.334C252.572 870.897 257.819 857.819 266.156 847.552L266.492 847.138V761.88C266.492 718.452 279.306 682.055 305.407 656.512C331.51 630.967 371.103 616.081 425.049 616.081C480.438 616.081 520.006 630.972 545.729 656.505C571.451 682.038 583.546 718.43 583.546 761.88V847.109L583.883 847.523C592.264 857.819 597.496 870.897 597.496 885.334C597.496 905.692 587.503 923.609 572.375 934.238L571.937 934.545L571.793 935.061C560.176 976.667 540.545 1012.13 515.73 1037.51L515.304 1037.95V1076.63L515.371 1076.84C516.878 1081.67 520.383 1086.72 525.43 1091.92C530.493 1097.14 537.2 1102.6 545.255 1108.25C561.365 1119.53 583.003 1131.65 608.011 1144.06C658.035 1168.9 721.719 1195.04 782.039 1218.35L782.042 1218.36C791.735 1222.08 798.167 1231.54 798.167 1242.13V1336.73C798.167 1350.78 786.933 1362.17 773.124 1362.17H76.9443C63.1352 1362.17 51.9014 1350.78 51.9014 1336.73V1242.11C51.9014 1231.55 58.3291 1222.11 68.0283 1218.34L68.0293 1218.34C128.349 1195.02 192.041 1168.87 242.068 1144.03C267.078 1131.61 288.718 1119.5 304.826 1108.22C312.88 1102.57 319.586 1097.11 324.646 1091.9C329.691 1086.7 333.194 1081.66 334.697 1076.83L334.765 1076.61V1037.95Z" fill="black"/>
</mask>
<g mask="url(#mask0_563_144)">
<path d="M855 -3H0V1396H855V-3Z" fill="black" fill-opacity="0.7"/>
</g>
</g>
<defs>
<clipPath id="clip0_563_144">
<rect width="855" height="1396" fill="white"/>
</clipPath>
</defs>
</svg>
