<svg width="750" height="750" viewBox="0 0 750 750" fill="none" xmlns="http://www.w3.org/2000/svg">
<path d="M732.58 602.956C611.96 556.34 478.054 498.458 466.803 462.399V424.56C491.823 398.967 511.564 363.27 523.237 321.465C538.756 310.561 548.996 292.192 548.996 271.335C548.996 256.525 543.627 243.118 535.046 232.576V147.88C535.046 60.4387 486.349 0.581299 375.049 0.581299C266.615 0.581299 214.992 60.4387 214.992 147.88V232.606C206.456 243.118 201.072 256.525 201.072 271.335C201.072 292.177 211.282 310.531 226.801 321.449C238.474 363.255 258.23 398.967 283.265 424.56V462.384C272.044 498.413 138.108 556.309 17.4884 602.941C7.203 606.937 0.401367 616.936 0.401367 628.111V722.731C0.401367 737.586 12.2854 749.666 26.9443 749.666H723.124C737.783 749.666 749.667 737.586 749.667 722.731V628.126C749.667 616.936 742.865 606.907 732.58 602.956Z" fill="#F0F3FF" fill-opacity="0.2"/>
</svg>
