<svg width="855" height="1396" viewBox="0 0 855 1396" fill="none" xmlns="http://www.w3.org/2000/svg">
<g clip-path="url(#clip0_567_175)">
<mask id="mask0_567_175" style="mask-type:luminance" maskUnits="userSpaceOnUse" x="0" y="0" width="855" height="1396">
<path d="M855 0H0V1396H855V0Z" fill="white"/>
<path d="M335.265 1037.74L335.122 1037.6L334.694 1037.16C310.321 1012.24 290.939 977.554 279.276 936.854L278.727 934.911L278.584 934.397L278.536 934.225L278.39 934.122L277.951 933.813L277.25 933.312C262.647 922.703 253.072 905.195 253.072 885.334C253.072 871.021 258.273 858.053 266.544 847.867L266.88 847.453L266.992 847.315V761.88C266.992 718.55 279.775 682.295 305.757 656.869C331.335 631.838 369.964 617.048 422.535 616.592L425.049 616.581C480.351 616.581 519.775 631.447 545.377 656.859C570.978 682.272 583.046 718.52 583.046 761.88V847.286L583.158 847.425L583.495 847.839C591.809 858.053 596.996 871.021 596.996 885.334C596.996 905.525 587.085 923.291 572.088 933.828L571.65 934.136L571.504 934.238L571.455 934.41L571.312 934.927C559.713 976.466 540.118 1011.85 515.372 1037.16V1037.16L514.946 1037.6L514.804 1037.74V1076.7L514.826 1076.77L514.893 1076.99L514.894 1076.99C516.434 1081.93 520 1087.05 525.071 1092.27C530.164 1097.52 536.898 1103 544.968 1108.66C561.108 1119.97 582.772 1132.09 607.789 1144.51C657.834 1169.36 721.535 1195.51 781.858 1218.82L781.867 1218.82L781.875 1218.83C791.364 1222.48 797.667 1231.75 797.667 1242.13V1336.73C797.667 1350.51 786.65 1361.67 773.124 1361.67H76.9443C63.4184 1361.67 52.4014 1350.51 52.4014 1336.73V1242.11C52.4015 1231.78 58.6649 1222.56 68.1182 1218.84L68.21 1218.81C128.533 1195.49 192.242 1169.33 242.29 1144.48C267.309 1132.05 288.975 1119.93 305.113 1108.62C313.182 1102.97 319.915 1097.49 325.005 1092.25C330.074 1087.02 333.637 1081.91 335.174 1076.98L335.242 1076.76L335.265 1076.69V1037.74Z" fill="black" stroke="#00FFA5"/>
</mask>
<g mask="url(#mask0_567_175)">
<path d="M855 -3H0V1396H855V-3Z" fill="black" fill-opacity="0.7"/>
<path d="M332.795 1037.82L332.363 1037.38C307.277 1012 287.427 976.53 275.689 934.928L275.545 934.414L275.102 934.106L274.39 933.601C259.506 922.902 249.75 905.246 249.75 885.222C249.75 870.787 255.052 857.71 263.475 847.444L263.815 847.03V761.782C263.815 718.359 276.761 681.966 303.133 656.426C329.507 630.884 369.51 616 424.015 616C479.978 616 519.956 630.889 545.946 656.419C571.934 681.949 584.155 718.337 584.155 761.782V847.001L584.495 847.415C592.963 857.71 598.249 870.787 598.249 885.222C598.249 905.578 588.153 923.493 572.868 934.121L572.425 934.428L572.28 934.943C560.542 976.545 540.708 1012 515.636 1037.38L515.205 1037.82V1076.49L515.273 1076.71C516.796 1081.54 520.337 1086.59 525.436 1091.79C530.552 1097.01 537.328 1102.47 545.467 1108.11C561.744 1119.4 583.606 1131.51 608.873 1143.92C659.416 1168.75 723.76 1194.9 784.705 1218.21L784.708 1218.21C794.501 1221.93 801 1231.39 801 1241.97V1336.57C801 1350.61 789.65 1362 775.697 1362H72.3024C58.3502 1362 47 1350.61 47 1336.57V1241.96C47 1231.4 53.4943 1221.96 63.294 1218.19L63.295 1218.19C124.24 1194.87 188.592 1168.72 239.138 1143.89C264.407 1131.47 286.271 1119.36 302.546 1108.08C310.683 1102.44 317.459 1096.98 322.571 1091.76C327.669 1086.57 331.208 1081.52 332.727 1076.7L332.795 1076.48V1037.82Z" stroke="black" stroke-width="3"/>
</g>
</g>
<defs>
<clipPath id="clip0_567_175">
<rect width="855" height="1396" fill="white"/>
</clipPath>
</defs>
</svg>
