<svg width="72" height="73" viewBox="0 0 72 73" fill="none" xmlns="http://www.w3.org/2000/svg">
<circle cx="36" cy="36.5" r="36" fill="white" fill-opacity="0.05"/>
<path d="M52.1305 37.8089C50.9082 37.6341 49.8227 38.4214 49.6474 39.5437C49.2072 42.3627 47.8226 44.9348 45.6431 46.9828C40.0959 52.1952 31.0767 52.1911 25.5317 46.9828C19.9879 41.7724 19.9879 33.2945 25.5317 28.0852C27.6172 26.1266 30.2499 24.8496 33.1963 24.3848C34.4634 24.1588 35.8257 24.1197 37.2392 24.2702C39.18 24.4802 40.9864 25.0852 42.6349 25.9736L39.7863 26.4307C38.5962 26.6225 37.7947 27.6847 38 28.804C38.1816 29.8058 39.1069 30.5135 40.1539 30.5135C40.2758 30.5135 40.3996 30.5045 40.5256 30.4843L48.1624 29.2575C48.7328 29.1652 49.2435 28.864 49.5792 28.4182C49.9146 27.9735 50.0472 27.4213 49.9487 26.8832L48.6409 19.7084C48.4401 18.5901 47.3246 17.8411 46.1153 18.0288C44.9252 18.2206 44.1237 19.2838 44.3289 20.4031L44.6731 22.2915C42.5553 21.1751 40.2191 20.4528 37.737 20.1843C35.878 19.9855 34.0746 20.0408 32.4239 20.3379C28.6237 20.9362 25.1707 22.6098 22.4376 25.1778C15.1875 31.9904 15.1875 43.0755 22.4376 49.89C26.0626 53.2972 30.8255 55 35.5874 55C40.3504 55 45.1109 53.2974 48.7372 49.89C51.5856 47.2135 53.3976 43.8424 53.9765 40.142C54.152 39.0176 53.3249 37.9734 52.1305 37.8089Z" fill="white"/>
</svg>
