<svg width="81" height="81" viewBox="0 0 81 81" fill="none" xmlns="http://www.w3.org/2000/svg">
<path d="M29.1793 25.0019V30.4175H28.0254C25.5155 30.4175 23.4736 32.4594 23.4736 34.9693V52.658C23.4736 55.1679 25.5155 57.2098 28.0254 57.2098H52.9748C55.4847 57.2098 57.5266 55.1679 57.5266 52.658V34.9693C57.5266 32.4594 55.4847 30.4175 52.9748 30.4175H51.8209V25.0019C51.8209 18.7595 46.7422 13.681 40.5 13.681C34.2578 13.681 29.1792 18.7595 29.1792 25.0019H29.1793ZM55.6284 34.9695V52.6582C55.6284 54.1212 54.438 55.3116 52.975 55.3116H28.0254C26.5623 55.3116 25.372 54.1212 25.372 52.6582V34.9695C25.372 33.5064 26.5623 32.3161 28.0254 32.3161H52.9748C54.4379 32.3161 55.6282 33.5064 55.6282 34.9695H55.6284ZM45.3129 30.4177H35.6873V25.0021C35.6873 22.3484 37.8463 20.1892 40.5002 20.1892C43.154 20.1892 45.3129 22.3482 45.3129 25.0021V30.4177ZM49.9226 25.0021V30.4177H47.2113V25.0021C47.2113 21.3014 44.2007 18.2908 40.5002 18.2908C36.7997 18.2908 33.7889 21.3014 33.7889 25.0021V30.4177H31.0778V25.0021C31.0778 19.8065 35.3046 15.5796 40.5002 15.5796C45.6957 15.5796 49.9226 19.8065 49.9226 25.0021ZM37.8197 43.9891V47.8779C37.8197 49.356 39.0222 50.5584 40.5002 50.5584C41.9781 50.5584 43.1806 49.3558 43.1806 47.8779V43.9891C44.0014 43.24 44.4791 42.1741 44.4791 41.0488C44.4791 38.8548 42.6941 37.0698 40.5002 37.0698C38.3062 37.0698 36.5212 38.8548 36.5212 41.0488C36.5212 42.1741 36.9988 43.24 37.8197 43.9891ZM40.5002 38.9682C41.6475 38.9682 42.5807 39.9015 42.5807 41.0488C42.5807 41.7286 42.2472 42.3669 41.6883 42.7567C41.4339 42.9342 41.2822 43.2248 41.2822 43.5352V47.8779C41.2822 48.3092 40.9313 48.6599 40.5002 48.6599C40.0691 48.6599 39.7182 48.309 39.7182 47.8779V43.5354C39.7182 43.2252 39.5665 42.9344 39.3122 42.7569C38.7533 42.3671 38.4197 41.7284 38.4197 41.0488C38.4197 39.9015 39.3529 38.9682 40.5002 38.9682ZM71.7046 11.2479L40.8031 0.84049C40.6066 0.774361 40.3937 0.774361 40.1972 0.84049L9.2954 11.2479C7.47797 11.86 6.30347 13.4947 6.30347 15.4126V43.8861C6.30347 51.0387 9.0774 57.2652 14.7838 62.9218C19.7452 67.8398 26.2393 71.7168 32.5196 75.4659C35.1403 77.0303 37.6158 78.5079 39.9806 80.0542C40.1384 80.1572 40.3194 80.2089 40.5 80.2089C40.6807 80.2089 40.8617 80.1574 41.0194 80.0542C43.3842 78.5083 45.8596 77.0305 48.4803 75.4659C54.7606 71.7168 61.2547 67.84 66.2161 62.9218C71.9223 57.2654 74.6964 51.0387 74.6964 43.8861V15.4126C74.6964 13.4947 73.5221 11.86 71.7046 11.2479ZM72.7981 43.8863C72.7981 58.7381 59.941 66.4135 47.5075 73.836C45.1667 75.2335 42.7519 76.6748 40.5002 78.1281C38.2483 76.6748 35.8337 75.2335 33.4927 73.836C21.0591 66.4135 8.20206 58.7381 8.20206 43.8863V15.4126C8.20206 14.3232 8.8692 13.3947 9.90148 13.0471L40.5 2.74178L71.0986 13.0471C72.1308 13.3947 72.798 14.3232 72.798 15.4126V43.8861L72.7981 43.8863ZM69.0361 15.6402L40.8031 6.13159C40.6066 6.06546 40.3937 6.06546 40.1972 6.13159L11.9641 15.6399C11.578 15.77 11.3179 16.1319 11.3179 16.5396V43.8861C11.3179 47.5968 12.2218 50.9229 14.0814 54.0539C18.3758 61.2847 27.7208 66.8308 35.9659 71.724C37.3766 72.5612 38.7092 73.3521 39.9927 74.1369C40.1447 74.2298 40.3163 74.2763 40.4878 74.2763C40.6614 74.2763 40.8346 74.2289 40.9879 74.1339C42.626 73.1189 44.3126 72.1127 45.9435 71.1395C47.3035 70.3282 48.7097 69.4893 50.0848 68.647C54.6774 65.8338 59.4736 62.7604 63.206 58.8537C67.5638 54.2926 69.6823 49.3967 69.6823 43.8863V16.5398C69.6823 16.1322 69.4222 15.7704 69.0361 15.6402ZM67.7839 43.8863C67.7839 54.6851 58.9427 60.995 49.0931 67.0282C47.7275 67.8647 46.3262 68.7006 44.9708 69.5093C43.4967 70.3888 41.9775 71.295 40.4844 72.2138C39.3455 71.5223 38.17 70.8248 36.9346 70.0917C28.8847 65.3143 19.7607 59.8993 15.7135 53.0847C14.033 50.2551 13.2162 47.2464 13.2162 43.8863V17.2215L40.5 8.03272L67.7837 17.2216V43.8861L67.7839 43.8863Z" fill="white"/>
</svg>
