<svg width="167" height="149" viewBox="0 0 167 149" fill="none" xmlns="http://www.w3.org/2000/svg">
<path d="M83.5039 0.5C85.9168 0.500033 88.2873 1.13538 90.377 2.3418C92.4665 3.54824 94.2017 5.28348 95.4082 7.37305L164.657 127.319C165.864 129.409 166.5 131.781 166.5 134.194C166.5 136.608 165.865 138.979 164.658 141.069C163.452 143.159 161.716 144.895 159.626 146.102C157.536 147.308 155.164 147.943 152.751 147.943H14.249C11.8355 147.943 9.46418 147.308 7.37402 146.102C5.28403 144.895 3.54843 143.159 2.3418 141.069C1.13511 138.979 0.499817 136.608 0.5 134.194C0.500223 131.781 1.13566 129.409 2.34277 127.319L71.5996 7.37305C72.8061 5.28345 74.5412 3.54822 76.6309 2.3418C78.7205 1.13537 81.091 0.5 83.5039 0.5Z" fill="url(#paint0_linear_2005_138)" stroke="#FFB400"/>
<path d="M82.6016 44.6182H84.4082C88.5797 44.6183 91.9609 48.0003 91.9609 52.1719V90.666C91.9607 94.8374 88.5796 98.2186 84.4082 98.2188H82.6016C78.43 98.2188 75.0481 94.8375 75.0479 90.666V52.1719C75.0479 48.0002 78.4299 44.6182 82.6016 44.6182Z" fill="white" stroke="#FFB400"/>
<path d="M83.5049 111.835C88.1753 111.835 91.9609 115.622 91.9609 120.292C91.9608 124.962 88.1752 128.748 83.5049 128.748C78.8345 128.748 75.048 124.962 75.0479 120.292C75.0479 115.621 78.8344 111.835 83.5049 111.835Z" fill="white" stroke="#FFB400"/>
<defs>
<linearGradient id="paint0_linear_2005_138" x1="0" y1="74.2218" x2="167" y2="74.2218" gradientUnits="userSpaceOnUse">
<stop offset="0.5" stop-color="#FFB400"/>
<stop offset="0.5001" stop-color="#FFC02A"/>
</linearGradient>
</defs>
</svg>
