<svg width="72" height="73" viewBox="0 0 72 73" fill="none" xmlns="http://www.w3.org/2000/svg">
<circle cx="36" cy="36.5" r="36" fill="white" fill-opacity="0.05"/>
<path d="M49.7703 38.3037C49.8398 37.7256 49.886 37.1244 49.886 36.5C49.886 35.8756 49.8398 35.2744 49.7472 34.6963L53.6584 31.6438C54.0056 31.3663 54.0981 30.8575 53.8898 30.4644L50.1869 24.0587C49.9555 23.6425 49.4695 23.5038 49.0529 23.6425L44.4473 25.4925C43.4753 24.7525 42.457 24.1513 41.323 23.6888L40.6287 18.7862C40.5593 18.3237 40.1658 18 39.7029 18H32.2971C31.8342 18 31.4639 18.3237 31.3945 18.7862L30.7002 23.6888C29.5661 24.1513 28.5247 24.7756 27.5758 25.4925L22.9703 23.6425C22.5537 23.4806 22.0677 23.6425 21.8362 24.0587L18.1333 30.4644C17.9019 30.8806 17.9944 31.3663 18.3647 31.6438L22.276 34.6963C22.1834 35.2744 22.114 35.8988 22.114 36.5C22.114 37.1012 22.1602 37.7256 22.2528 38.3037L18.3416 41.3563C17.9944 41.6338 17.9019 42.1425 18.1102 42.5356L21.8131 48.9413C22.0445 49.3575 22.5305 49.4963 22.9471 49.3575L27.5527 47.5075C28.5247 48.2475 29.543 48.8487 30.677 49.3112L31.3713 54.2137C31.4639 54.6762 31.8342 55 32.2971 55H39.7029C40.1658 55 40.5593 54.6762 40.6055 54.2137L41.2998 49.3112C42.4339 48.8487 43.4753 48.2244 44.4242 47.5075L49.0297 49.3575C49.4463 49.5194 49.9323 49.3575 50.1638 48.9413L53.8667 42.5356C54.0981 42.1194 54.0056 41.6338 53.6353 41.3563L49.7703 38.3037V38.3037ZM36 43.4375C32.1813 43.4375 29.057 40.3156 29.057 36.5C29.057 32.6844 32.1813 29.5625 36 29.5625C39.8187 29.5625 42.943 32.6844 42.943 36.5C42.943 40.3156 39.8187 43.4375 36 43.4375Z" fill="white"/>
</svg>
