<svg id="Layer_2" enable-background="new 0 0 32 32" height="300" viewBox="0 0 32 32" width="300" xmlns="http://www.w3.org/2000/svg" version="1.1" xmlns:xlink="http://www.w3.org/1999/xlink" xmlns:svgjs="http://svgjs.dev/svgjs"><g width="100%" height="100%" transform="matrix(1,0,0,1,0,0)"><g><path d="m30.39001 14.58997c-4.29004-3.07001-9.32001-4.60999-14.35004-4.60999-.00995 0-.02997-.01001-.03998-.01001s-.02002.01001-.03998.01001c-5.03003 0-10.06 1.53998-14.35004 4.60999-.64996.46002-.81 1.37-.33997 2.02002.46997.65002 1.37.79999 2.02997.34003 2.21002-1.58002 4.65002-2.69 7.16998-3.35004-.31995.73999-.5 1.54999-.5 2.40002 0 3.32001 2.71002 6.02997 6.03003 6.02997s6.03005-2.70996 6.03005-6.02997c0-.85004-.18005-1.66003-.5-2.40002 2.51996.66003 4.95996 1.77002 7.16998 3.35004.26001.17999.56.26996.84998.26996.45001 0 .90002-.20996 1.17999-.60999.47003-.65003.31-1.56-.33997-2.02002z" fill="#000000" fill-opacity="1" data-original-color="#000000ff" stroke="none" stroke-opacity="1"/></g></g></svg>