<svg width="82" height="83" viewBox="0 0 82 83" fill="none" xmlns="http://www.w3.org/2000/svg">
<path d="M28.2939 13.5187C34.6258 11.9814 41.1845 11.6015 47.6348 12.423H47.6367C59.1654 13.8698 69.2042 18.5242 77.7793 26.3986C78.7477 27.2901 79.3963 28.0243 79.5801 29.0343L79.584 29.0519C79.6299 29.2814 79.6541 29.5355 79.6836 29.8195C79.6288 30.7103 79.4121 31.4219 79.0566 31.9825C78.6961 32.5512 78.1594 33.0212 77.3818 33.3683C75.8619 34.0466 74.4628 33.8263 73.2607 32.7111L73.2598 32.7101L72.6699 32.171C69.9034 29.6745 66.9434 27.4392 63.665 25.6134L62.958 25.2286C54.5662 20.7637 45.6234 19.0195 36.1709 20.0011C25.7988 21.0779 16.7575 25.2181 9.17188 32.3761L9.1709 32.3771C7.51178 33.9453 5.42752 33.9675 4.05273 33.0382C1.91197 31.5695 1.70178 28.67 3.66699 26.9396C5.8626 25.0068 8.09295 23.1141 10.4492 21.4572H10.4502C15.8564 17.6455 21.8293 15.0585 28.2891 13.5197L28.2939 13.5187Z" stroke="white" stroke-width="2"/>
<path d="M42.6335 28.228C51.3368 28.3642 60.2273 31.9564 67.6677 39.1694L67.6687 39.1704C69.2561 40.7082 69.2916 43.1269 67.8347 44.6206L67.8318 44.6235C66.2749 46.2301 63.9025 46.2742 62.3035 44.7124C57.5512 40.0686 51.8874 37.1297 45.3015 36.2642L44.6619 36.187C35.2473 35.1481 26.937 37.8278 20.0505 44.4097C18.3673 46.0131 16.5351 46.1086 15.1638 45.3813H15.1628C12.8433 44.1541 12.3796 41.0714 14.3123 39.1636L14.3171 39.1587C17.3034 36.1725 20.7891 33.7268 24.6101 31.8989C29.7868 29.446 35.2615 28.2293 42.6335 28.228Z" stroke="white" stroke-width="2"/>
<path d="M41.0457 44.4125C47.321 44.5505 52.6381 46.8317 56.9548 51.4154L56.9568 51.4174C58.5266 53.0752 58.4582 55.4661 56.8845 56.9662C55.3149 58.4623 52.9413 58.4129 51.3552 56.7386H51.3542C48.5757 53.8112 45.144 52.2125 41.0876 52.1791C37.0351 52.1458 33.5456 53.676 30.7703 56.6342L30.7683 56.6351C28.5992 58.9563 25.0909 58.2022 24.1384 55.3578L24.1375 55.3558C23.6514 53.9098 23.9371 52.6217 24.9871 51.5092L24.9919 51.5033C29.3221 46.847 34.6813 44.5365 41.0457 44.4125Z" stroke="white" stroke-width="2"/>
<path d="M41.0552 61.2628H41.0562C43.8076 61.3277 45.9446 63.5232 45.9087 66.213C45.8571 68.9007 43.6315 71.0506 40.9282 70.9991C38.2574 70.9477 36.1212 68.754 36.1421 66.0646C36.194 63.3348 38.4293 61.1993 41.0552 61.2628Z" stroke="white" stroke-width="2"/>
</svg>
